<?xml version="1.0" encoding="utf-8"?>
<!-- Generator: Adobe Illustrator 23.0.0, SVG Export Plug-In . SVG Version: 6.00 Build 0)  -->
<svg version="1.1" id="Layer_1" xmlns="http://www.w3.org/2000/svg" xmlns:xlink="http://www.w3.org/1999/xlink" x="0px" y="0px"
	 viewBox="0 0 341.4 341.4" style="enable-background:new 0 0 341.4 341.4;" xml:space="preserve">
<style type="text/css">
	.st0{fill:none;stroke:#FFFFFF;stroke-width:3;stroke-miterlimit:10;}
	.st1{fill:#865EA5;}
	.st2{fill:#966EAE;}
	.st3{fill:#AB84BB;}
	.st4{fill:#DA72A8;}
	.st5{fill:#FFFFFF;stroke:#FFFFFF;stroke-miterlimit:10;}
</style>
<g id="battersea">
	<rect x="1.5" y="1.5" class="st0" width="338.4" height="338.4"/>
	<polygon class="st1" points="250.6,166.1 250.6,106.7 255,101.8 262.2,106.2 262.2,165.6 	"/>
	<polygon class="st2" points="242.4,202.3 242.4,169.9 256.4,163.2 273.8,168.5 273.8,201.8 	"/>
	<polygon class="st1" points="208.3,173.8 208.3,114.4 212.6,109.6 219.9,113.9 219.9,173.3 	"/>
	<polygon class="st1" points="104.3,164.1 152.6,161.7 246.8,174.3 247.8,216.8 161.3,241.4 104.3,240.4 	"/>
	<polygon class="st3" points="277.7,197.9 161.8,197.9 163.2,239 192.7,244.8 277.7,228.8 	"/>
	<polygon class="st1" points="86.9,141.6 86.9,82.2 91.3,77.3 98.5,81.7 98.5,141.1 	"/>
	<polygon class="st1" points="142.5,149.3 142.5,73 146.8,68.1 154.1,72.5 154.1,148.8 	"/>
	<polygon class="st2" points="73.9,143.4 73.9,239.5 99.5,244.8 111.6,240.4 113,143.9 98,137.1 	"/>
	<polygon class="st2" points="129.8,145.2 129.8,242 156.1,247.4 168.5,243 170,145.8 154.6,138.8 	"/>
</g>
<g id="pig">
	<circle class="st4" cx="120.5" cy="106.3" r="8.3"/>
</g>
<g id="smoke">
	<path class="st5" d="M92.7,75.2c0,0-5.7-0.9-5.8-11s5.4-7.2,2.9-18.8c0,0,4.9,2.7,3.5,9.1c-1.2,5.5-2.3,5.9-2.6,10.1
		C90.5,69.1,91.5,70.3,92.7,75.2z"/>
	<path class="st5" d="M148.3,64c0,0-5.7-0.9-5.8-11c-0.1-10.1,5.4-7.2,2.9-18.8c0,0,4.9,2.7,3.5,9.1c-1.2,5.5-2.3,5.9-2.6,10.1
		C146,57.9,147,59,148.3,64"/>
	<path class="st5" d="M214.1,101.8c0,0-5.7-0.9-5.8-11c-0.1-10.1,5.4-7.2,2.9-18.8c0,0,4.9,2.7,3.5,9.1c-1.2,5.5-2.3,5.9-2.6,10.1
		C211.8,95.7,212.8,96.9,214.1,101.8"/>
	<path class="st5" d="M256.4,98c0,0-5.7-0.9-5.8-11c-0.1-10.1,5.4-7.2,2.9-18.8c0,0,4.9,2.7,3.5,9.1c-1.2,5.5-2.3,5.9-2.6,10.1
		C254.2,91.9,255.2,93,256.4,98"/>
</g>
</svg>
