<?xml version="1.0" encoding="utf-8"?>
<!-- Generator: Adobe Illustrator 23.0.0, SVG Export Plug-In . SVG Version: 6.00 Build 0)  -->
<svg version="1.1" id="animals_x5F_record" xmlns="http://www.w3.org/2000/svg" xmlns:xlink="http://www.w3.org/1999/xlink" x="0px"
	 y="0px" viewBox="0 0 421 388" style="enable-background:new 0 0 421 388;" xml:space="preserve">
<style type="text/css">
	.st0{fill:#D6E3E5;}
	.st1{fill:#161616;}
	.st2{fill:#161616;stroke:#FFFFFF;stroke-width:2;stroke-miterlimit:10;}
	.st3{fill:none;}
	.st4{font-family:'Futura-Medium';}
	.st5{font-size:16px;}
	.st6{fill:#161616;stroke:#FFFFFF;stroke-width:3;stroke-miterlimit:10;}
	.st7{fill:#966EAE;}
	.st8{fill:#FFFFFF;}
</style>
<g id="platinum">
	<circle class="st0" cx="80.06" cy="84.7" r="61.83"/>
	<circle class="st1" cx="80.06" cy="84.7" r="18.73"/>
	<circle class="st2" cx="80.06" cy="84.7" r="4.74"/>
	<rect x="38.13" y="49.25" class="st3" width="83.87" height="16.08"/>
	<text transform="matrix(1 0 0 1 39.696 62.4506)" class="st4 st5">PLATINUM</text>
	<rect x="61.33" y="31.18" class="st3" width="37.21" height="16.08"/>
	<text transform="matrix(1 0 0 1 70.5327 44.3721)" class="st4 st5">4x</text>
</g>
<g id="record">
	<circle class="st6" cx="239.49" cy="202.57" r="163.19"/>
	<circle class="st7" cx="239.49" cy="202.57" r="99.87"/>
	<circle class="st1" cx="239.49" cy="202.57" r="28.96"/>
	<circle class="st2" cx="239.49" cy="202.57" r="4.74"/>
	<rect x="186.45" y="140.12" class="st3" width="105.35" height="16.36"/>
	<text transform="matrix(1 0 0 1 202.2566 153.3195)" class="st8 st4 st5">ANIMALS</text>
	<rect x="221.14" y="256.3" class="st3" width="36.7" height="16.36"/>
	<text transform="matrix(1 0 0 1 224.9201 269.4933)" class="st8 st4 st5">EMI</text>
</g>
</svg>
