<svg id="Layer_1" data-name="Layer 1" xmlns="http://www.w3.org/2000/svg" viewBox="0 0 341.35 341.35"><defs><style>.cls-1{fill:none;stroke:#fff;stroke-miterlimit:10;stroke-width:3px;}.cls-2{fill:#865ea5;}.cls-3{fill:#966eae;}.cls-4{fill:#ab84bb;}.cls-5{fill:#da72a8;}</style></defs><title>animals_album</title><rect class="cls-1" x="1.5" y="1.5" width="338.35" height="338.35"/><polygon class="cls-2" points="250.64 166.06 250.64 106.66 254.99 101.83 262.23 106.18 262.23 165.58 250.64 166.06"/><polygon class="cls-3" points="242.43 202.28 242.43 169.93 256.44 163.17 273.82 168.48 273.82 201.8 242.43 202.28"/><polygon class="cls-2" points="208.3 173.82 208.3 114.42 212.65 109.59 219.89 113.94 219.89 173.34 208.3 173.82"/><polygon class="cls-2" points="104.32 164.13 152.61 161.72 246.78 174.27 247.75 216.77 161.3 241.4 104.32 240.43 104.32 164.13"/><polygon class="cls-4" points="277.69 197.94 161.79 197.94 163.23 238.99 192.69 244.78 277.69 228.84 277.69 197.94"/><polygon class="cls-2" points="86.95 141.55 86.95 82.15 91.29 77.32 98.54 81.67 98.54 141.06 86.95 141.55"/><polygon class="cls-2" points="142.48 149.27 142.48 72.97 146.83 68.14 154.07 72.49 154.07 148.79 142.48 149.27"/><polygon class="cls-3" points="73.89 143.37 73.89 239.47 99.49 244.78 111.56 240.43 113.01 143.85 98.04 137.09 73.89 143.37"/><polygon class="cls-3" points="129.78 145.25 129.78 241.98 156.07 247.43 168.47 242.97 169.96 145.75 154.58 138.81 129.78 145.25"/><circle class="cls-5" cx="120.49" cy="106.28" r="8.31"/></svg>