<?xml version="1.0" encoding="utf-8"?>
<!-- Generator: Adobe Illustrator 23.0.0, SVG Export Plug-In . SVG Version: 6.00 Build 0)  -->
<svg version="1.1" id="animals_x5F_writers" xmlns="http://www.w3.org/2000/svg" xmlns:xlink="http://www.w3.org/1999/xlink"
	 x="0px" y="0px" viewBox="0 0 696 409" style="enable-background:new 0 0 696 409;" xml:space="preserve">
<style type="text/css">
	.st0{fill:#EC6A5E;}
	.st1{fill:#70C4A4;}
	.st2{fill:#C8CAD2;}
	.st3{fill:#717580;}
	.st4{fill:#B0B4BD;}
	.st5{fill:#242528;}
	.st6{fill:#4A5460;}
	.st7{fill:none;stroke:#FFFFFF;stroke-miterlimit:10;}
</style>
<g id="writers">
	
		<rect x="145.18" y="11.11" transform="matrix(6.123234e-17 -1 1 6.123234e-17 -10.2166 325.593)" class="st0" width="25.01" height="313.59"/>
	
		<rect x="272.57" y="175.03" transform="matrix(6.123234e-17 -1 1 6.123234e-17 80.5929 489.515)" class="st1" width="24.97" height="58.86"/>
</g>
<g id="amp">
	<polygon class="st2" points="673.22,91.08 652.74,322.42 599.35,397.62 313.79,291.19 303.86,100 316.27,52.2 375.25,13.96 	"/>
	<polygon class="st3" points="628.53,140.79 673.23,91.24 652.74,322.42 599.35,397.62 614.25,193.05 	"/>
	<polygon class="st4" points="324.11,53.97 324.11,63.03 616.64,146.76 619.19,138.15 	"/>
	<polygon class="st4" points="310.35,101.21 324.11,53.97 382.2,15.84 375.25,13.96 316.27,52.2 303.86,100 313.79,291.19 
		320.74,293.75 	"/>
	<polygon class="st3" points="318.23,98.23 327.31,63.89 616.71,146.71 606.36,182 	"/>
	<polygon class="st5" points="318.23,98.23 322.18,286.24 591.48,385.45 606.36,182 	"/>
	<polygon class="st4" points="458.92,54.19 440.47,51.84 434.26,56.71 433.93,61.73 451.08,65.59 451.57,59.22 	"/>
	<polygon class="st3" points="451.57,59.22 434.26,56.71 433.93,61.73 451.08,65.59 	"/>
	<polygon class="st3" points="451.08,65.59 451.57,59.22 458.92,54.19 458.42,61.58 	"/>
	<path class="st5" d="M524.76,80.77c0,0-14.2-19.93-27.51-25.28c-3.74-1.51-7.6-2.21-11.21-2.44c-7.78-0.5-15.55,1.24-22.55,4.75
		l-8.67,4.34l-0.18-3.51c0,0,14.96-11.12,29.66-12.92c19.6-2.4,46.74,28.98,46.74,28.98L524.76,80.77z"/>
	<polygon class="st3" points="530.63,72.87 525.07,77.92 524.86,86.05 543.25,91.1 551.38,85.61 551.38,81.66 	"/>
	<polygon class="st4" points="525.25,77.96 543.24,87.03 551.02,81.68 530.63,72.87 	"/>
	<polygon class="st4" points="619.19,138.15 665.41,89.1 673.13,91.13 628.53,140.79 614.25,193.05 599.35,397.62 589.69,393.83 
		603.88,189.99 	"/>
	
		<ellipse transform="matrix(0.0381 -0.9993 0.9993 0.0381 374.7448 500.6241)" class="st5" cx="447.4" cy="55.67" rx="1.29" ry="2.7"/>
	
		<ellipse transform="matrix(0.3152 -0.949 0.949 0.3152 292.6463 566.0992)" class="st5" cx="538.6" cy="80.26" rx="1.84" ry="3.15"/>
	<ellipse class="st5" cx="381.18" cy="97.14" rx="10.89" ry="10.95"/>
	<ellipse class="st5" cx="402.86" cy="102.64" rx="11.18" ry="10.89"/>
	<ellipse class="st5" cx="424.63" cy="109.13" rx="11.22" ry="10.89"/>
	<ellipse class="st5" cx="468.85" cy="122.34" rx="11.22" ry="10.89"/>
	<ellipse class="st5" cx="491.8" cy="129.08" rx="11.22" ry="10.89"/>
	<ellipse class="st2" cx="378.96" cy="96.51" rx="8.32" ry="8.79"/>
	<ellipse class="st2" cx="400.92" cy="102.22" rx="8.21" ry="8.97"/>
	<ellipse class="st2" cx="422.4" cy="108.71" rx="7.93" ry="9.07"/>
	<ellipse class="st2" cx="467.36" cy="121.88" rx="8.47" ry="9.29"/>
	<ellipse class="st2" cx="490.6" cy="128.98" rx="8.67" ry="9.29"/>
	<path class="st6" d="M596.38,167.76l-18.17-5.26c-1.4-0.41-2.21-1.9-1.82-3.33l2.99-10.88c0.39-1.44,1.85-2.27,3.25-1.87
		l18.17,5.26c1.4,0.41,2.21,1.9,1.82,3.33l-2.99,10.88C599.23,167.33,597.78,168.16,596.38,167.76z"/>
	<path class="st7" d="M330.44,74.83l-3.75,13.09c-1.16,4.04,1.11,8.27,5.04,9.43l263.87,78.19c3.91,1.16,7.99-1.14,9.14-5.15
		l4.64-16.17c1.17-4.07-1.14-8.33-5.12-9.46L339.5,69.65C335.61,68.55,331.58,70.85,330.44,74.83z"/>
	<ellipse class="st5" cx="589.21" cy="157.07" rx="4.7" ry="4.83"/>
	<ellipse class="st6" cx="565.86" cy="149.24" rx="5.08" ry="4.98"/>
	<ellipse class="st5" cx="565.79" cy="149.32" rx="2.86" ry="2.81"/>
	<path class="st2" d="M567.67,147.25l-7.47,1.7c0,0-2.18,0.15-1.87,2c0.3,1.85,2.1,1.35,2.1,1.35l8.17-2.48
		C568.6,149.83,568.86,148.07,567.67,147.25z"/>
	<ellipse class="st6" cx="541.19" cy="142.35" rx="5.08" ry="4.98"/>
	<ellipse class="st5" cx="540.98" cy="142.49" rx="2.86" ry="2.81"/>
</g>
</svg>
