<svg id="Layer_1" data-name="Layer 1" xmlns="http://www.w3.org/2000/svg" viewBox="0 0 246 246"><defs><style>.cls-1{fill:#865ea5;}.cls-2{fill:#966eae;}.cls-3{fill:#ab84bb;}.cls-4{fill:#da72a8;}.cls-5{fill:none;stroke:#fff;stroke-miterlimit:10;stroke-width:2px;}</style></defs><title>animals</title><polygon class="cls-1" points="180.64 119.71 180.64 76.37 183.81 72.85 189.1 76.02 189.1 119.36 180.64 119.71"/><polygon class="cls-2" points="174.65 146.13 174.65 122.53 184.87 117.59 197.56 121.47 197.56 145.78 174.65 146.13"/><polygon class="cls-1" points="149.75 125.37 149.75 82.03 152.92 78.51 158.21 81.68 158.21 125.02 149.75 125.37"/><polygon class="cls-1" points="73.88 118.3 109.12 116.54 177.82 125.7 178.53 156.71 115.46 174.67 73.88 173.97 73.88 118.3"/><polygon class="cls-3" points="200.37 142.96 115.81 142.96 116.87 172.91 138.36 177.14 200.37 165.51 200.37 142.96"/><polygon class="cls-1" points="61.21 101.82 61.21 58.48 64.38 54.96 69.67 58.13 69.67 101.47 61.21 101.82"/><polygon class="cls-1" points="101.73 107.46 101.73 51.79 104.9 48.27 110.19 51.44 110.19 107.11 101.73 107.46"/><polygon class="cls-2" points="51.69 103.15 51.69 173.26 70.36 177.14 79.17 173.97 80.22 103.5 69.3 98.57 51.69 103.15"/><polygon class="cls-2" points="92.46 104.53 92.46 175.09 111.64 179.07 120.69 175.82 121.77 104.89 110.55 99.82 92.46 104.53"/><circle class="cls-4" cx="85.68" cy="76.09" r="6.06"/><circle class="cls-5" cx="123" cy="123" r="122"/></svg>