<?xml version="1.0" encoding="utf-8"?>
<!-- Generator: Adobe Illustrator 23.0.0, SVG Export Plug-In . SVG Version: 6.00 Build 0)  -->
<svg version="1.1" id="cow" xmlns="http://www.w3.org/2000/svg" xmlns:xlink="http://www.w3.org/1999/xlink" x="0px" y="0px"
	 viewBox="0 0 341.4 341.4" style="enable-background:new 0 0 341.4 341.4;" xml:space="preserve">
<style type="text/css">
	.st0{fill:#DF473D;}
	.st1{fill:#70C4A4;}
	.st2{fill:#161616;}
	.st3{fill:#EC6A5E;}
	.st4{fill:none;stroke:#FFFFFF;stroke-width:3;stroke-miterlimit:10;}
</style>
<g id="tail">
	<path class="st0" d="M94.2,157.6c-1.2-6.7-2.9-13.4-5-19.9c-3.2-9.4-1.5-18.7,5.1-27.5l-3-4.3c0,0-7.4,9.1-7.8,17.7
		c-0.5,8.3,1.7,15.3,4.3,23.4S94.2,157.6,94.2,157.6z"/>
</g>
<g id="body">
	<rect x="1.5" y="209.5" class="st1" width="338.4" height="129.6"/>
	<rect x="0.5" y="1.9" class="st2" width="338.4" height="207.5"/>
	<path class="st0" d="M98.7,120.3c0,0,10.3,26.4-2.6,49.6s-12.3,29.6-9.1,37c0.1,0.2,0.2,0.4,0.3,0.5c1.1,1.7,1.7,3.7,1.6,5.8v43.3
		h4.8v-42.1c0-2.3,1.8-4.2,4.1-4.2c9.9-0.1,22.9-3.2,22.9-3.2S177.9,119.4,98.7,120.3z"/>
	<path class="st3" d="M235.1,134.3C208.2,113,106,101.1,95.6,103.6c-5.4,1.3-5.2,3.6-6,5.3c-1.5,3.2-0.9,7,1.5,9.7
		c4.6,5.2,12.3,14.9,13.5,22.4c1.4,9.7,7.7,16.5,9,17.8c0.2,0.2,0.3,0.3,0.4,0.6c10.4,18.8,4.6,35,1.8,40.8
		c-1.1,2.2-1.7,4.6-1.7,7.1c0,0.5,0,1,0.1,1.5c0.3,2.4,1.4,4.7,3.2,6.4c0.3,0.2,0.5,0.5,0.6,0.9l13.5,36.5c0.5,1.2,1.9,1.9,3.1,1.4
		l0,0l0,0c1.2-0.5,1.9-1.8,1.4-3.1l-10.9-29.3c-0.5-1.2,0.2-2.6,1.4-3.1c0.2-0.1,0.4-0.1,0.6-0.1c1.3-0.1,2.5-0.5,3.6-1
		c11.3-5.4,15.8-19.8,17.1-25.2c0.3-1.2,1.4-2,2.6-1.8c13.1,1.7,35.9-0.9,47.5-2.5c1.3-0.2,2.5,0.7,2.7,2c0,0.1,0,0.2,0,0.3v40.7
		c0,1.3,1.1,2.4,2.4,2.4l0,0l0,0c1.3,0,2.4-1.1,2.4-2.4l0,0V188c0-0.8,0.4-1.6,1.2-2.1C215.2,181.2,259.5,153.7,235.1,134.3z"/>
	<rect x="1.5" y="1.5" class="st4" width="338.4" height="338.4"/>
	<path class="st0" d="M128.3,117.3c-10.1,1.3-17.4,10.3-15,16.8s22.8,5.5,22.8,12.9s11.6,5.8,12.7,0s2.3-11.2-4.3-14.2
		S146.9,114.8,128.3,117.3z"/>
	<path class="st0" d="M160.1,165.2c0.4-5.1-3.2-9.6-6.6-9.1s-5.1,10.5-8.7,9.8s-4.1,5.1-1.4,6.2s5.2,2.3,7.4-0.6
		S159.3,174.6,160.1,165.2z"/>
	<path class="st0" d="M193.1,129.4c0.4-5.1-4.4,0.9-7.9,1.4s-3.8,0-7.5-0.8s-4.1,5-1.4,6.2s5.2,2.3,7.4-0.6S192.3,138.8,193.1,129.4
		z"/>
	<path class="st0" d="M193,177.3c5.1,0.5,9.7-3,9.3-6.4s-11.3,2.5-2.8-10.2c2.1-3.1-11.7-2.9-12.9-0.2s-2.4,5.2,0.4,7.4
		S183.7,176.3,193,177.3z"/>
</g>
<g id="head">
	<path class="st0" d="M229.5,124.7c0,0,7.7-7.7,14.9-7.7s16.4,7.7,16.4,7.7c4.5-1.5,9.3-1.9,14-1.2c8,1.2-6.3,12-11.1,13.3
		s-7.9,14.9-7.9,14.9S258,170,245.4,170c0,0-7.9,3.9-11.1-17.4c0,0-1-12.1-7-15.4S206,126.8,214.6,123
		C218.9,121.1,229.5,124.7,229.5,124.7z"/>
</g>
</svg>
