<?xml version="1.0" encoding="utf-8"?>
<!-- Generator: Adobe Illustrator 23.0.0, SVG Export Plug-In . SVG Version: 6.00 Build 0)  -->
<svg version="1.1" id="atom_x5F_writers" xmlns="http://www.w3.org/2000/svg" xmlns:xlink="http://www.w3.org/1999/xlink" x="0px"
	 y="0px" viewBox="0 0 696 409" style="enable-background:new 0 0 696 409;" xml:space="preserve">
<style type="text/css">
	.st0{fill:#EC6A5E;}
	.st1{fill:#70C4A4;}
	.st2{fill:#966EAE;}
	.st3{fill:#E8B946;}
	.st4{fill:#C8CAD2;}
	.st5{fill:#717580;}
	.st6{fill:#B0B4BD;}
	.st7{fill:#242528;}
	.st8{fill:#4A5460;}
	.st9{fill:none;stroke:#FFFFFF;stroke-miterlimit:10;}
</style>
<g id="writers">
	
		<rect x="528.5" y="-16.5" transform="matrix(3.015253e-03 -1 1 3.015253e-03 400.0836 679.2283)" class="st0" width="24.4" height="311"/>
	
		<rect x="528.5" y="20.3" transform="matrix(3.015253e-03 -1 1 3.015253e-03 363.2939 715.9075)" class="st1" width="24.4" height="311"/>
	
		<rect x="528.4" y="56.2" transform="matrix(3.015253e-03 -1 1 3.015253e-03 327.3033 751.7101)" class="st2" width="24.4" height="311"/>
	
		<rect x="451.6" y="169.4" transform="matrix(3.015253e-03 -1 1 3.015253e-03 214.3491 711.1553)" class="st3" width="24.4" height="157.4"/>
</g>
<g id="amp">
	<polygon class="st4" points="23.8,92.4 44.8,323.7 99.7,398.9 392.8,292.5 403,101.3 390.3,53.5 329.7,15.3 	"/>
	<polygon class="st5" points="69.7,142.1 23.8,92.6 44.8,323.7 99.7,398.9 84.3,194.4 	"/>
	<polygon class="st6" points="382.2,55.3 382.2,64.3 81.9,148.1 79.3,139.5 	"/>
	<polygon class="st6" points="396.3,102.5 382.2,55.3 322.6,17.2 329.7,15.3 390.3,53.5 403,101.3 392.8,292.5 385.7,295.1 	"/>
	<polygon class="st5" points="388.2,99.6 378.9,65.2 81.8,148 92.4,183.3 	"/>
	<polygon class="st7" points="388.2,99.6 384.2,287.5 107.7,386.8 92.4,183.3 	"/>
	<polygon class="st6" points="243.8,55.5 262.8,53.2 269.1,58 269.5,63 251.9,66.9 251.4,60.5 	"/>
	<polygon class="st5" points="251.4,60.5 269.1,58 269.5,63 251.9,66.9 	"/>
	<polygon class="st5" points="251.9,66.9 251.4,60.5 243.8,55.5 244.3,62.9 	"/>
	<path class="st7" d="M176.2,82.1c0,0,14.6-19.9,28.2-25.3c3.8-1.5,7.8-2.2,11.5-2.4c8-0.5,16,1.2,23.1,4.8l8.9,4.3l0.2-3.5
		c0,0-15.4-11.1-30.4-12.9c-20.1-2.4-48,29-48,29L176.2,82.1z"/>
	<polygon class="st5" points="170.2,74.2 175.9,79.2 176.1,87.4 157.2,92.4 148.9,86.9 148.9,83 	"/>
	<polygon class="st6" points="175.7,79.3 157.2,88.3 149.3,83 170.2,74.2 	"/>
	<polygon class="st6" points="79.3,139.5 31.8,90.4 23.9,92.4 69.7,142.1 84.3,194.4 99.7,398.9 109.6,395.1 95,191.3 	"/>
	
		<ellipse transform="matrix(0.9993 -3.650326e-02 3.650326e-02 0.9993 -1.9103 9.3679)" class="st7" cx="255.6" cy="57" rx="2.8" ry="1.3"/>
	<ellipse transform="matrix(0.9538 -0.3006 0.3006 0.9538 -17.038 52.4739)" class="st7" cx="162" cy="81.6" rx="3.2" ry="1.9"/>
	<ellipse class="st7" cx="323.6" cy="98.5" rx="11.2" ry="10.9"/>
	<ellipse class="st7" cx="301.4" cy="104" rx="11.5" ry="10.9"/>
	<ellipse class="st7" cx="279" cy="110.4" rx="11.5" ry="10.9"/>
	<ellipse class="st7" cx="233.6" cy="123.7" rx="11.5" ry="10.9"/>
	<ellipse class="st7" cx="210.1" cy="130.4" rx="11.5" ry="10.9"/>
	<ellipse class="st4" cx="325.9" cy="97.8" rx="8.5" ry="8.8"/>
	<ellipse class="st4" cx="303.4" cy="103.5" rx="8.4" ry="9"/>
	<ellipse class="st4" cx="235.1" cy="123.2" rx="8.7" ry="9.3"/>
	<ellipse class="st4" cx="211.3" cy="130.3" rx="8.9" ry="9.3"/>
	<path class="st8" d="M103.7,168.8l16.7-4.7c2-0.6,3.1-2.6,2.6-4.6l-2.5-9c-0.6-2-2.6-3.1-4.6-2.6l-16.7,4.7c-2,0.6-3.1,2.6-2.6,4.6
		l2.5,9C99.7,168.2,101.7,169.4,103.7,168.8z"/>
	<path class="st9" d="M375.7,76.1l3.9,13.1c1.2,4-1.1,8.3-5.2,9.4l-270.9,78.2c-4,1.2-8.2-1.1-9.4-5.1l-4.8-16.2
		c-1.2-4.1,1.2-8.3,5.3-9.5l271.8-75C370.4,69.9,374.5,72.2,375.7,76.1z"/>
	<circle class="st7" cx="110.1" cy="158.4" r="4.8"/>
	<ellipse class="st8" cx="134" cy="150.6" rx="5.2" ry="5"/>
	<ellipse class="st7" cx="134.1" cy="150.6" rx="2.9" ry="2.8"/>
	<path class="st4" d="M132.2,148.6l7.7,1.7c0,0,2.2,0.1,1.9,2s-2.1,1.4-2.1,1.4l-8.4-2.5C131.2,151.1,130.9,149.4,132.2,148.6z"/>
	<ellipse class="st8" cx="159.4" cy="143.7" rx="5.2" ry="5"/>
	<ellipse class="st7" cx="159.6" cy="143.8" rx="2.9" ry="2.8"/>
	<ellipse class="st4" cx="281.3" cy="110" rx="8.1" ry="9.1"/>
</g>
</svg>
