<?xml version="1.0" encoding="utf-8"?>
<!-- Generator: Adobe Illustrator 23.0.0, SVG Export Plug-In . SVG Version: 6.00 Build 0)  -->
<svg version="1.1" id="atom_x5F_writers" xmlns="http://www.w3.org/2000/svg" xmlns:xlink="http://www.w3.org/1999/xlink" x="0px"
	 y="0px" viewBox="0 0 696 409" style="enable-background:new 0 0 696 409;" xml:space="preserve">
<style type="text/css">
	.st0{fill:#EC6A5E;}
	.st1{fill:#70C4A4;}
	.st2{fill:#966EAE;}
	.st3{fill:#E8B946;}
	.st4{fill:#C8CAD2;}
	.st5{fill:#717580;}
	.st6{fill:#B0B4BD;}
	.st7{fill:#242528;}
	.st8{fill:#4A5460;}
	.st9{fill:none;stroke:#FFFFFF;stroke-miterlimit:10;}
</style>
<g id="writers">
	
		<rect x="528.43" y="-16.54" transform="matrix(-3.015281e-03 1 -1 -3.015281e-03 681.191 -401.2663)" class="st0" width="24.4" height="310.95"/>
	
		<rect x="528.43" y="20.26" transform="matrix(-3.015281e-03 1 -1 -3.015281e-03 717.9859 -364.3603)" class="st1" width="24.4" height="310.95"/>
	
		<rect x="528.43" y="56.2" transform="matrix(-3.015281e-03 1 -1 -3.015281e-03 753.9314 -328.3063)" class="st2" width="24.4" height="310.95"/>
	
		<rect x="451.66" y="169.42" transform="matrix(-3.015281e-03 1 -1 -3.015281e-03 713.3769 -214.9833)" class="st3" width="24.4" height="157.41"/>
</g>
<g id="amp">
	<polygon class="st4" points="23.81,92.4 44.84,323.74 99.65,398.94 392.81,292.51 403.01,101.32 390.26,53.52 329.72,15.28 	"/>
	<polygon class="st5" points="69.69,142.11 23.79,92.56 44.84,323.74 99.65,398.94 84.35,194.37 	"/>
	<polygon class="st6" points="382.22,55.29 382.22,64.35 81.89,148.08 79.28,139.47 	"/>
	<polygon class="st6" points="396.34,102.53 382.22,55.29 322.57,17.16 329.72,15.28 390.26,53.52 403.01,101.32 392.81,292.51 
		385.67,295.07 	"/>
	<polygon class="st5" points="388.25,99.55 378.93,65.21 81.82,148.03 92.45,183.31 	"/>
	<polygon class="st7" points="388.25,99.55 384.19,287.55 107.73,386.77 92.45,183.31 	"/>
	<polygon class="st6" points="243.82,55.51 262.76,53.16 269.13,58.02 269.47,63.05 251.87,66.91 251.36,60.54 	"/>
	<polygon class="st5" points="251.36,60.54 269.13,58.02 269.47,63.05 251.87,66.91 	"/>
	<polygon class="st5" points="251.87,66.91 251.36,60.54 243.82,55.51 244.33,62.9 	"/>
	<path class="st7" d="M176.23,82.09c0,0,14.58-19.93,28.24-25.28c3.84-1.51,7.8-2.21,11.5-2.44c7.99-0.5,15.96,1.24,23.15,4.75
		l8.9,4.34l0.18-3.51c0,0-15.35-11.12-30.45-12.92C197.63,44.63,169.77,76,169.77,76L176.23,82.09z"/>
	<polygon class="st5" points="170.19,74.19 175.9,79.24 176.12,87.37 157.24,92.42 148.9,86.93 148.9,82.97 	"/>
	<polygon class="st6" points="175.72,79.28 157.25,88.35 149.27,83 170.19,74.19 	"/>
	<polygon class="st6" points="79.28,139.47 31.83,90.42 23.9,92.45 69.69,142.11 84.35,194.37 99.65,398.94 109.56,395.14 
		95,191.31 	"/>
	
		<ellipse transform="matrix(0.9993 -0.0365 0.0365 0.9993 -1.9106 9.374)" class="st7" cx="255.64" cy="56.99" rx="2.77" ry="1.29"/>
	
		<ellipse transform="matrix(0.9538 -0.3006 0.3006 0.9538 -17.0292 52.4691)" class="st7" cx="162.02" cy="81.58" rx="3.23" ry="1.85"/>
	<ellipse class="st7" cx="323.62" cy="98.46" rx="11.18" ry="10.95"/>
	<ellipse class="st7" cx="301.37" cy="103.96" rx="11.47" ry="10.89"/>
	<ellipse class="st7" cx="279.01" cy="110.45" rx="11.52" ry="10.89"/>
	<ellipse class="st7" cx="233.63" cy="123.66" rx="11.52" ry="10.89"/>
	<ellipse class="st7" cx="210.06" cy="130.4" rx="11.52" ry="10.89"/>
	<ellipse class="st4" cx="325.91" cy="97.83" rx="8.54" ry="8.79"/>
	<ellipse class="st4" cx="303.36" cy="103.54" rx="8.43" ry="8.97"/>
	<ellipse class="st4" cx="235.15" cy="123.19" rx="8.69" ry="9.29"/>
	<ellipse class="st4" cx="211.3" cy="130.29" rx="8.9" ry="9.29"/>
	<path class="st8" d="M103.66,168.8l16.73-4.72c1.97-0.55,3.11-2.6,2.56-4.57l-2.53-8.96c-0.55-1.97-2.6-3.11-4.57-2.56l-16.73,4.72
		c-1.97,0.55-3.11,2.6-2.56,4.57l2.53,8.96C99.65,168.21,101.69,169.36,103.66,168.8z"/>
	<path class="st9" d="M375.71,76.14l3.85,13.09c1.19,4.04-1.13,8.27-5.18,9.43L103.5,176.86c-4.01,1.16-8.2-1.14-9.38-5.15
		l-4.77-16.17c-1.2-4.07,1.17-8.33,5.26-9.46l271.81-75.11C370.41,69.87,374.55,72.17,375.71,76.14z"/>
	<circle class="st7" cx="110.05" cy="158.39" r="4.83"/>
	<ellipse class="st8" cx="134.02" cy="150.56" rx="5.21" ry="4.98"/>
	<ellipse class="st7" cx="134.1" cy="150.64" rx="2.94" ry="2.81"/>
	<path class="st4" d="M132.17,148.57l7.67,1.7c0,0,2.24,0.15,1.92,2c-0.31,1.85-2.15,1.35-2.15,1.35l-8.39-2.48
		C131.21,151.15,130.94,149.39,132.17,148.57z"/>
	<ellipse class="st8" cx="159.36" cy="143.67" rx="5.21" ry="4.98"/>
	<ellipse class="st7" cx="159.57" cy="143.81" rx="2.94" ry="2.81"/>
	<ellipse class="st4" cx="281.3" cy="110.03" rx="8.14" ry="9.07"/>
</g>
</svg>
