<svg id="Layer_1" data-name="Layer 1" xmlns="http://www.w3.org/2000/svg" viewBox="0 0 341.35 341.35"><defs><style>.cls-1{fill:#70c4a4;}.cls-2{fill:#161616;}.cls-3{fill:#df473d;}.cls-4{fill:#ec6a5e;}.cls-5{fill:none;stroke:#fff;stroke-miterlimit:10;stroke-width:3px;}</style></defs><title>atom_album</title><rect class="cls-1" x="1.5" y="209.46" width="338.35" height="129.61"/><rect class="cls-2" x="0.54" y="1.92" width="338.35" height="207.54"/><path class="cls-3" d="M103.62,123.37s10.26,26.39-2.64,49.56-12.32,29.63-9.09,37a2.54,2.54,0,0,0,.31.53,9.54,9.54,0,0,1,1.56,5.75v43.27h4.82V217.39a4.23,4.23,0,0,1,4.13-4.25c9.92-.13,22.91-3.25,22.91-3.25S182.81,122.49,103.62,123.37Z" transform="translate(-4.89 -3.08)"/><path class="cls-3" d="M99.12,160.64a148.28,148.28,0,0,0-5-19.86c-3.23-9.39-1.5-18.72,5.09-27.51l-3-4.33s-7.4,9.11-7.75,17.74C88,135,90.2,142,92.81,150.06S99.12,160.64,99.12,160.64Z" transform="translate(-4.89 -3.08)"/><path class="cls-4" d="M240,137.43c-26.89-21.27-129.12-33.21-139.47-30.65-5.4,1.34-5.16,3.6-6,5.32A9,9,0,0,0,96,121.81c4.6,5.18,12.35,14.89,13.47,22.45,1.44,9.71,7.72,16.52,9,17.84a2.46,2.46,0,0,1,.41.55c10.35,18.82,4.56,35,1.81,40.8a15.81,15.81,0,0,0-1.7,7.12,14.48,14.48,0,0,0,.11,1.52,10.6,10.6,0,0,0,3.23,6.41,2.33,2.33,0,0,1,.58.87l13.52,36.54a2.41,2.41,0,0,0,3.1,1.42h0a2.42,2.42,0,0,0,1.43-3.1l-10.86-29.34a2.38,2.38,0,0,1,1.95-3.21,11.34,11.34,0,0,0,3.65-1c11.32-5.37,15.75-19.75,17.07-25.24a2.38,2.38,0,0,1,2.61-1.84c13.13,1.71,35.87-.9,47.51-2.48a2.39,2.39,0,0,1,2.71,2.39v40.72a2.41,2.41,0,0,0,2.41,2.41h0a2.41,2.41,0,0,0,2.42-2.41v-42.9a2.36,2.36,0,0,1,1.17-2.06C220.09,184.29,264.4,156.74,240,137.43Z" transform="translate(-4.89 -3.08)"/><path class="cls-3" d="M234.4,127.79s7.72-7.71,14.94-7.71,16.39,7.71,16.39,7.71a29.27,29.27,0,0,1,14-1.21c8,1.21-6.27,12-11.09,13.26s-7.95,14.94-7.95,14.94,2.17,18.31-10.36,18.31c0,0-7.95,3.85-11.09-17.35,0,0-1-12.05-7-15.42s-21.33-10.42-12.77-14.22C223.8,124.17,234.4,127.79,234.4,127.79Z" transform="translate(-4.89 -3.08)"/><rect class="cls-5" x="1.5" y="1.5" width="338.35" height="338.35"/><path class="cls-3" d="M133.23,120.34c-10.12,1.3-17.41,10.27-15,16.84S141,142.66,141,150.11s11.6,5.75,12.72,0,2.34-11.19-4.27-14.18S151.84,117.93,133.23,120.34Z" transform="translate(-4.89 -3.08)"/><path class="cls-3" d="M165,168.31c.44-5.09-3.16-9.6-6.63-9.13s-5.1,10.53-8.74,9.75-4.05,5.06-1.35,6.22,5.21,2.33,7.38-.58S164.21,177.65,165,168.31Z" transform="translate(-4.89 -3.08)"/><path class="cls-3" d="M198,132.52c.44-5.08-4.42.94-7.89,1.41s-3.84,0-7.48-.78-4.05,5-1.36,6.21,5.22,2.34,7.39-.58S197.15,141.87,198,132.52Z" transform="translate(-4.89 -3.08)"/><path class="cls-3" d="M197.91,180.37c5.08.54,9.66-3,9.26-6.45s-11.27,2.47-2.83-10.16c2.07-3.1-11.73-2.91-12.94-.24s-2.44,5.17.43,7.39S188.59,179.38,197.91,180.37Z" transform="translate(-4.89 -3.08)"/></svg>