<?xml version="1.0" encoding="utf-8"?>
<!-- Generator: Adobe Illustrator 22.1.0, SVG Export Plug-In . SVG Version: 6.00 Build 0)  -->
<svg version="1.1" id="Layer_1" xmlns="http://www.w3.org/2000/svg" xmlns:xlink="http://www.w3.org/1999/xlink" x="0px" y="0px"
	 viewBox="0 0 239.1 239.1" style="enable-background:new 0 0 239.1 239.1;" xml:space="preserve">
<style type="text/css">
	.st0{clip-path:url(#SVGID_2_);}
	.st1{fill:#8FB66D;}
	.st2{fill:none;stroke:#FFFFFF;stroke-width:2;stroke-miterlimit:10;}
	.st3{fill:#DF473D;}
	.st4{fill:#EC6A5E;}
</style>
<title>dark_side</title>
<g>
	<defs>
		<ellipse id="SVGID_1_" cx="119.5" cy="120" rx="111.5" ry="113.9"/>
	</defs>
	<clipPath id="SVGID_2_">
		<use xlink:href="#SVGID_1_"  style="overflow:visible;"/>
	</clipPath>
	<g class="st0">
		<rect x="-12.7" y="145.1" class="st1" width="301.2" height="88.9"/>
	</g>
</g>
<ellipse class="st2" cx="119.5" cy="120" rx="111.5" ry="113.9"/>
<path class="st3" d="M72.2,86.3c0,0,6.8,17.8-1.7,33.5s-8.1,20-6,24.9c0.1,0.1,0.1,0.3,0.2,0.4c0.7,1.1,1.1,2.5,1,3.8v29.2h3.2
	v-28.4c0-1.6,1.2-2.8,2.7-2.9c6.6-0.1,15.1-2.2,15.1-2.2S124.6,85.7,72.2,86.3z"/>
<path class="st3" d="M69.3,111.4c-0.8-4.5-1.9-9-3.3-13.4c-2.1-6.3-0.9-12.6,3.4-18.6l-2-2.9c0,0-4.9,6.1-5.1,12
	c-0.2,5.6,1.2,10.3,2.9,15.8C66.8,109.8,69.3,111.4,69.3,111.4z"/>
<path class="st4" d="M162.3,95.8C144.6,81.4,77,73.4,70.2,75.1c-3.6,0.9-3.4,2.4-3.9,3.6c-1,2.2-0.6,4.8,0.9,6.6
	c3,3.5,8.2,10,8.9,15.2c0.8,4.5,2.8,8.7,5.9,12c0.1,0.1,0.2,0.2,0.3,0.4c4.8,8.4,5.2,18.7,1.2,27.5c-0.7,1.5-1.1,3.1-1.1,4.8
	c0,0.3,0,0.7,0.1,1c0.2,1.7,1,3.2,2.1,4.3c0.2,0.2,0.3,0.4,0.4,0.6l8.9,24.7c0.3,0.8,1.2,1.3,2,1c0,0,0,0,0,0l0,0
	c0.8-0.3,1.2-1.2,0.9-2.1l-7.2-19.8c-0.3-0.8,0.1-1.8,0.9-2.1c0.1,0,0.2-0.1,0.4-0.1c0.8-0.1,1.7-0.3,2.4-0.7
	c7.5-3.6,10.4-13.3,11.3-17c0.2-0.8,0.9-1.3,1.7-1.2c8.7,1.2,23.7-0.6,31.4-1.7c0.9-0.1,1.7,0.5,1.8,1.4c0,0.1,0,0.2,0,0.2v27.5
	c0,0.9,0.7,1.6,1.6,1.6l0,0c0.9,0,1.6-0.7,1.6-1.6v-29c0-0.6,0.3-1.1,0.8-1.4C149.1,127.4,178.4,108.8,162.3,95.8z"/>
<path class="st3" d="M158.6,89.3c0,0,5.1-5.2,9.9-5.2c4.8,0,10.8,5.2,10.8,5.2c3-1,6.1-1.3,9.2-0.8c5.3,0.8-4.1,8.1-7.3,8.9
	c-3.2,0.8-5.3,10.1-5.3,10.1s1.4,12.4-6.8,12.4c0,0-5.3,2.6-7.3-11.7c0,0-0.6-8.1-4.6-10.4c-4-2.3-14.1-7-8.5-9.6
	C151.6,86.9,158.6,89.3,158.6,89.3z"/>
</svg>
