<?xml version="1.0" encoding="utf-8"?>
<!-- Generator: Adobe Illustrator 23.0.0, SVG Export Plug-In . SVG Version: 6.00 Build 0)  -->
<svg version="1.1" id="atom_x5F_record" xmlns="http://www.w3.org/2000/svg" xmlns:xlink="http://www.w3.org/1999/xlink" x="0px"
	 y="0px" viewBox="0 0 421 388" style="enable-background:new 0 0 421 388;" xml:space="preserve">
<style type="text/css">
	.st0{fill:#DBCB00;}
	.st1{fill:#161616;}
	.st2{fill:#161616;stroke:#FFFFFF;stroke-width:2;stroke-miterlimit:10;}
	.st3{fill:none;}
	.st4{enable-background:new    ;}
	.st5{fill:#161616;stroke:#FFFFFF;stroke-width:3;stroke-miterlimit:10;}
	.st6{fill:#EC6A5E;}
	.st7{fill:#FFFFFF;}
</style>
<g id="gold">
	<circle class="st0" cx="343" cy="84" r="61.8"/>
	<circle class="st1" cx="343" cy="84" r="18.7"/>
	<circle class="st2" cx="343" cy="84" r="4.7"/>
	<rect x="318.6" y="41" class="st3" width="48.9" height="16.1"/>
	<g class="st4">
		<path d="M327.4,47.9h5v0.4c0,0.9-0.1,1.7-0.3,2.4c-0.2,0.6-0.6,1.2-1.1,1.8c-1.1,1.3-2.5,1.9-4.3,1.9c-1.7,0-3.1-0.6-4.3-1.8
			c-1.2-1.2-1.8-2.7-1.8-4.4c0-1.8,0.6-3.2,1.8-4.5c1.2-1.2,2.7-1.8,4.5-1.8c0.9,0,1.8,0.2,2.6,0.6c0.8,0.4,1.5,1,2.3,1.9l-1.3,1.2
			c-1-1.3-2.2-2-3.6-2c-1.3,0-2.3,0.4-3.2,1.3c-0.9,0.9-1.3,1.9-1.3,3.2c0,1.3,0.5,2.5,1.4,3.3c0.9,0.8,1.9,1.2,2.9,1.2
			c0.9,0,1.7-0.3,2.4-0.9c0.7-0.6,1.1-1.3,1.2-2.2h-3V47.9z"/>
		<path d="M334.1,48.1c0-1.7,0.6-3.2,1.9-4.4c1.2-1.2,2.7-1.8,4.5-1.8c1.7,0,3.2,0.6,4.4,1.8c1.2,1.2,1.9,2.7,1.9,4.4
			c0,1.7-0.6,3.2-1.9,4.4c-1.2,1.2-2.7,1.8-4.5,1.8c-1.6,0-3-0.5-4.2-1.6C334.8,51.6,334.1,50,334.1,48.1z M336,48.1
			c0,1.3,0.4,2.4,1.3,3.3c0.9,0.9,1.9,1.3,3.1,1.3c1.3,0,2.3-0.4,3.2-1.3c0.9-0.9,1.3-2,1.3-3.2c0-1.3-0.4-2.4-1.3-3.2
			c-0.9-0.9-1.9-1.3-3.2-1.3c-1.3,0-2.3,0.4-3.2,1.3C336.4,45.8,336,46.9,336,48.1z"/>
		<path d="M350.8,42.1v10.4h3.5v1.7H349V42.1H350.8z"/>
		<path d="M356.1,54.2V42.1h2.5c1.2,0,2.2,0.1,2.9,0.4c0.8,0.2,1.4,0.6,2.1,1.2c1.2,1.1,1.9,2.6,1.9,4.5c0,1.9-0.6,3.4-1.9,4.5
			c-0.7,0.6-1.3,1-2,1.2c-0.7,0.2-1.6,0.3-2.8,0.3H356.1z M357.9,52.5h0.8c0.8,0,1.5-0.1,2-0.3c0.5-0.2,1-0.5,1.5-0.9
			c0.9-0.8,1.3-1.9,1.3-3.2c0-1.3-0.4-2.4-1.3-3.2c-0.8-0.7-2-1.1-3.5-1.1h-0.8V52.5z"/>
	</g>
</g>
<g id="record">
	<circle class="st5" cx="184.4" cy="202.9" r="163.2"/>
	<circle class="st6" cx="184.4" cy="202.9" r="99.9"/>
	<circle class="st1" cx="184.4" cy="202.9" r="29"/>
	<circle class="st2" cx="184.4" cy="202.9" r="4.7"/>
	<rect x="131.4" y="129.8" class="st3" width="105.4" height="37.6"/>
	<g class="st4">
		<path class="st7" d="M140.5,140h-5.2l-1.3,2.9h-2l6-12.8l5.8,12.8h-2L140.5,140z M139.7,138.3l-1.8-4.1l-1.9,4.1H139.7z"/>
		<path class="st7" d="M147.9,132.6v10.4h-1.8v-10.4h-2.8v-1.7h7.4v1.7H147.9z"/>
		<path class="st7" d="M151.3,136.9c0-1.7,0.6-3.2,1.9-4.4c1.2-1.2,2.7-1.8,4.5-1.8c1.7,0,3.2,0.6,4.4,1.8c1.2,1.2,1.9,2.7,1.9,4.4
			c0,1.7-0.6,3.2-1.9,4.4c-1.2,1.2-2.7,1.8-4.5,1.8c-1.6,0-3-0.5-4.2-1.6C152,140.4,151.3,138.8,151.3,136.9z M153.1,136.9
			c0,1.3,0.4,2.4,1.3,3.3c0.9,0.9,1.9,1.3,3.1,1.3c1.3,0,2.3-0.4,3.2-1.3c0.9-0.9,1.3-2,1.3-3.2c0-1.3-0.4-2.4-1.3-3.2
			c-0.9-0.9-1.9-1.3-3.2-1.3c-1.3,0-2.3,0.4-3.2,1.3C153.6,134.5,153.1,135.6,153.1,136.9z"/>
		<path class="st7" d="M165.8,142.9l2.5-13l4.1,9.4l4.3-9.4l2.3,13h-1.9l-1.2-7.3l-3.6,7.8l-3.5-7.8l-1.3,7.3H165.8z"/>
		<path class="st7" d="M188.3,135.6h5.2v-4.7h1.8v12.1h-1.8v-5.6h-5.2v5.6h-1.8v-12.1h1.8V135.6z"/>
		<path class="st7" d="M204.9,132.6h-4.8v2.9h4.7v1.7h-4.7v4h4.8v1.7h-6.7v-12.1h6.7V132.6z"/>
		<path class="st7" d="M214.4,140h-5.2l-1.3,2.9h-2l6-12.8l5.8,12.8h-2L214.4,140z M213.6,138.3l-1.8-4.1l-1.9,4.1H213.6z"/>
		<path class="st7" d="M223.2,137.8l3.7,5.1h-2.2l-3.4-4.9H221v4.9h-1.8v-12.1h2.1c1.6,0,2.7,0.3,3.5,0.9c0.8,0.7,1.2,1.5,1.2,2.6
			c0,0.9-0.2,1.6-0.7,2.2S224,137.6,223.2,137.8z M221,136.4h0.6c1.7,0,2.6-0.7,2.6-2c0-1.2-0.8-1.9-2.5-1.9H221V136.4z"/>
		<path class="st7" d="M232,132.6v10.4h-1.8v-10.4h-2.8v-1.7h7.4v1.7H232z"/>
	</g>
	<g class="st4">
		<path class="st7" d="M151.1,162.1l2.5-13l4.1,9.4l4.3-9.4l2.3,13h-1.9l-1.2-7.3l-3.6,7.8l-3.5-7.8l-1.3,7.3H151.1z"/>
		<path class="st7" d="M166.4,156.1c0-1.7,0.6-3.2,1.9-4.4c1.2-1.2,2.7-1.8,4.5-1.8c1.7,0,3.2,0.6,4.4,1.8c1.2,1.2,1.9,2.7,1.9,4.4
			c0,1.7-0.6,3.2-1.9,4.4c-1.2,1.2-2.7,1.8-4.5,1.8c-1.6,0-3-0.5-4.2-1.6C167,159.6,166.4,158,166.4,156.1z M168.2,156.1
			c0,1.3,0.4,2.4,1.3,3.3c0.9,0.9,1.9,1.3,3.1,1.3c1.3,0,2.3-0.4,3.2-1.3c0.9-0.9,1.3-2,1.3-3.2c0-1.3-0.4-2.4-1.3-3.2
			c-0.9-0.9-1.9-1.3-3.2-1.3c-1.3,0-2.3,0.4-3.2,1.3C168.6,153.7,168.2,154.8,168.2,156.1z"/>
		<path class="st7" d="M184.1,151.8v10.4h-1.8v-10.4h-2.8v-1.7h7.4v1.7H184.1z"/>
		<path class="st7" d="M190.4,154.8h5.2v-4.7h1.8v12.1h-1.8v-5.6h-5.2v5.6h-1.8v-12.1h1.8V154.8z"/>
		<path class="st7" d="M206.9,151.8h-4.8v2.9h4.7v1.7h-4.7v4h4.8v1.7h-6.7v-12.1h6.7V151.8z"/>
		<path class="st7" d="M213.4,157l3.7,5.1h-2.2l-3.4-4.9h-0.3v4.9h-1.8v-12.1h2.1c1.6,0,2.7,0.3,3.5,0.9c0.8,0.7,1.2,1.5,1.2,2.6
			c0,0.9-0.2,1.6-0.7,2.2C214.9,156.4,214.2,156.8,213.4,157z M211.1,155.6h0.6c1.7,0,2.6-0.7,2.6-2c0-1.2-0.8-1.9-2.5-1.9h-0.6
			V155.6z"/>
	</g>
	<rect x="165.4" y="259.5" class="st3" width="37.2" height="16.1"/>
	<g class="st4">
		<path class="st7" d="M177.6,262.4h-4.8v2.9h4.7v1.7h-4.7v4h4.8v1.7h-6.7v-12.1h6.7V262.4z"/>
		<path class="st7" d="M179.5,272.7l2.5-13l4.1,9.4l4.3-9.4l2.3,13h-1.9l-1.2-7.3l-3.6,7.8l-3.5-7.8l-1.3,7.3H179.5z"/>
		<path class="st7" d="M197.2,260.7v12.1h-1.8v-12.1H197.2z"/>
	</g>
</g>
</svg>
