<?xml version="1.0" encoding="utf-8"?>
<!-- Generator: Adobe Illustrator 23.0.0, SVG Export Plug-In . SVG Version: 6.00 Build 0)  -->
<svg version="1.1" id="dark_x5F_side_x5F_writers" xmlns="http://www.w3.org/2000/svg" xmlns:xlink="http://www.w3.org/1999/xlink"
	 x="0px" y="0px" viewBox="0 0 696 409" style="enable-background:new 0 0 696 409;" xml:space="preserve">
<style type="text/css">
	.st0{fill:#EC6A5E;}
	.st1{fill:#70C4A4;}
	.st2{fill:#966EAE;}
	.st3{fill:#E8B946;}
	.st4{fill:#C8CAD2;}
	.st5{fill:#717580;}
	.st6{fill:#B0B4BD;}
	.st7{fill:#242528;}
	.st8{fill:#4A5460;}
	.st9{fill:none;stroke:#FFFFFF;stroke-miterlimit:10;}
</style>
<g id="writers">
	
		<rect x="145.17" y="-17.15" transform="matrix(-5.813412e-06 1 -1 -5.813412e-06 296.5992 -18.2796)" class="st0" width="24.55" height="312.63"/>
	
		<rect x="215.52" y="89.59" transform="matrix(-5.813412e-06 1 -1 -5.813412e-06 403.8239 -51.7711)" class="st1" width="24.55" height="172.88"/>
	
		<rect x="195.84" y="105.85" transform="matrix(-5.813412e-06 1 -1 -5.813412e-06 420.5632 4.3423)" class="st2" width="24.55" height="213.21"/>
	
		<rect x="243.76" y="191.78" transform="matrix(-5.813412e-06 1 -1 -5.813412e-06 507.0011 -5.0557)" class="st3" width="24.55" height="118.38"/>
</g>
<g id="amp">
	<polygon class="st4" points="673.45,90.56 652.92,321.9 599.39,397.1 313.1,290.67 303.14,99.48 315.59,51.68 374.71,13.44 	"/>
	<polygon class="st5" points="628.64,140.27 673.47,90.72 652.92,321.9 599.39,397.1 614.33,192.53 	"/>
	<polygon class="st6" points="323.44,53.45 323.44,62.51 616.73,146.24 619.28,137.63 	"/>
	<polygon class="st6" points="309.65,100.69 323.44,53.45 381.69,15.32 374.71,13.44 315.59,51.68 303.14,99.48 313.1,290.67 
		320.07,293.23 	"/>
	<polygon class="st5" points="317.55,97.71 326.66,63.37 616.8,146.19 606.42,181.48 	"/>
	<polygon class="st7" points="317.55,97.71 321.51,285.72 591.5,384.93 606.42,181.48 	"/>
	<polygon class="st6" points="458.6,53.67 440.1,51.32 433.88,56.19 433.55,61.21 450.74,65.07 451.23,58.7 	"/>
	<polygon class="st5" points="451.23,58.7 433.88,56.19 433.55,61.21 450.74,65.07 	"/>
	<polygon class="st5" points="450.74,65.07 451.23,58.7 458.6,53.67 458.1,61.06 	"/>
	<path class="st7" d="M524.61,80.25c0,0-14.24-19.93-27.58-25.28c-3.75-1.51-7.62-2.21-11.23-2.44c-7.8-0.5-15.58,1.24-22.61,4.75
		l-8.69,4.34l-0.18-3.51c0,0,14.99-11.12,29.74-12.92c19.65-2.4,46.86,28.98,46.86,28.98L524.61,80.25z"/>
	<polygon class="st5" points="530.5,72.35 524.92,77.4 524.71,85.53 543.15,90.58 551.29,85.09 551.29,81.14 	"/>
	<polygon class="st6" points="525.1,77.44 543.14,86.51 550.93,81.16 530.5,72.35 	"/>
	<polygon class="st6" points="619.28,137.63 665.62,88.58 673.36,90.61 628.64,140.27 614.33,192.53 599.39,397.1 589.71,393.31 
		603.93,189.47 	"/>
	
		<ellipse transform="matrix(0.0379 -0.9993 0.9993 0.0379 374.9981 499.787)" class="st7" cx="447.05" cy="55.15" rx="1.29" ry="2.7"/>
	
		<ellipse transform="matrix(0.3137 -0.9495 0.9495 0.3137 293.818 566.0164)" class="st7" cx="538.48" cy="79.74" rx="1.84" ry="3.16"/>
	<ellipse class="st7" cx="380.67" cy="96.62" rx="10.92" ry="10.95"/>
	<ellipse class="st7" cx="402.39" cy="102.12" rx="11.21" ry="10.89"/>
	<ellipse class="st7" cx="424.23" cy="108.61" rx="11.25" ry="10.89"/>
	<ellipse class="st7" cx="468.55" cy="121.82" rx="11.25" ry="10.89"/>
	<ellipse class="st7" cx="491.56" cy="128.56" rx="11.25" ry="10.89"/>
	<ellipse class="st4" cx="378.43" cy="95.99" rx="8.34" ry="8.79"/>
	<ellipse class="st4" cx="400.46" cy="101.7" rx="8.23" ry="8.97"/>
	<ellipse class="st4" cx="421.99" cy="108.19" rx="7.95" ry="9.07"/>
	<ellipse class="st4" cx="467.07" cy="121.36" rx="8.49" ry="9.29"/>
	<ellipse class="st4" cx="490.36" cy="128.46" rx="8.69" ry="9.29"/>
	<path class="st8" d="M596.41,167.24l-18.22-5.26c-1.4-0.41-2.22-1.9-1.82-3.33l3-10.88c0.4-1.44,1.85-2.27,3.26-1.87l18.22,5.26
		c1.4,0.41,2.22,1.9,1.82,3.33l-3,10.88C599.27,166.81,597.82,167.64,596.41,167.24z"/>
	<path class="st9" d="M329.79,74.31l-3.76,13.09c-1.16,4.04,1.11,8.27,5.06,9.43l264.54,78.19c3.92,1.16,8.01-1.14,9.16-5.15
		l4.66-16.17c1.17-4.07-1.14-8.33-5.14-9.46L338.88,69.13C334.98,68.03,330.93,70.33,329.79,74.31z"/>
	<ellipse class="st7" cx="589.23" cy="156.55" rx="4.71" ry="4.83"/>
	<ellipse class="st8" cx="565.82" cy="148.72" rx="5.09" ry="4.98"/>
	<ellipse class="st7" cx="565.74" cy="148.8" rx="2.87" ry="2.81"/>
	<path class="st4" d="M567.63,146.73l-7.49,1.7c0,0-2.18,0.15-1.88,2c0.31,1.85,2.1,1.35,2.1,1.35l8.2-2.48
		C568.57,149.31,568.83,147.55,567.63,146.73z"/>
	<ellipse class="st8" cx="541.08" cy="141.83" rx="5.09" ry="4.98"/>
	<ellipse class="st7" cx="540.87" cy="141.97" rx="2.87" ry="2.81"/>
</g>
</svg>
