<svg id="Layer_1" data-name="Layer 1" xmlns="http://www.w3.org/2000/svg" viewBox="0 0 341.35 341.35"><defs><style>.cls-1{fill:#ec6a5e;stroke:#ec6a5e;}.cls-1,.cls-2,.cls-3,.cls-4,.cls-5,.cls-6{stroke-miterlimit:10;}.cls-2{fill:#afd17e;stroke:#afd17e;}.cls-3{fill:#966eae;stroke:#966eae;}.cls-4{fill:#fff;}.cls-4,.cls-5,.cls-6{stroke:#fff;}.cls-5{stroke-width:2px;}.cls-6{fill:none;stroke-width:3px;}</style></defs><title>dark_side_album</title><rect class="cls-1" x="187.44" y="162.91" width="159.35" height="4.24" rx="2.12" ry="2.12" transform="matrix(0.98, 0.18, -0.18, 0.98, 28.58, -50.24)"/><rect class="cls-2" x="188.14" y="178.53" width="160.33" height="4.24" rx="2.12" ry="2.12" transform="translate(48.1 -65.95) rotate(14.62)"/><rect class="cls-3" x="185.64" y="193.68" width="164.82" height="4.24" rx="2.12" ry="2.12" transform="translate(70.76 -79.7) rotate(18.71)"/><rect class="cls-4" x="5.07" y="177.53" width="152.93" height="4.24" rx="2.12" ry="2.12" transform="translate(-49.94 23.18) rotate(-15.01)"/><path class="cls-5" d="M174.5,120.78l-54.69,93.66a2.12,2.12,0,0,0,1.83,3.19H230.58a2.12,2.12,0,0,0,1.84-3.19l-54.26-93.66A2.11,2.11,0,0,0,174.5,120.78Z" transform="translate(-6.2 -4.06)"/><rect class="cls-6" x="1.5" y="1.5" width="338.35" height="338.35" rx="2.12" ry="2.12"/></svg>