<?xml version="1.0" encoding="utf-8"?>
<!-- Generator: Adobe Illustrator 23.0.0, SVG Export Plug-In . SVG Version: 6.00 Build 0)  -->
<svg version="1.1" xmlns="http://www.w3.org/2000/svg" xmlns:xlink="http://www.w3.org/1999/xlink" x="0px" y="0px"
	 viewBox="0 0 341.4 341.4" style="enable-background:new 0 0 341.4 341.4;" xml:space="preserve">
<style type="text/css">
	.st0{fill:#EC6A5E;stroke:#EC6A5E;stroke-miterlimit:10;}
	.st1{fill:#AFD17E;stroke:#AFD17E;stroke-miterlimit:10;}
	.st2{fill:#966EAE;stroke:#966EAE;stroke-miterlimit:10;}
	.st3{fill:#FFFFFF;stroke:#FFFFFF;stroke-miterlimit:10;}
	.st4{stroke:#FFFFFF;stroke-width:2;stroke-miterlimit:10;}
	.st5{fill:none;stroke:#FFFFFF;stroke-width:3;stroke-miterlimit:10;}
</style>
<g id="colorLines">
	<path class="st0" d="M185,143.5l152,27.9c1.1,0.2,1.9,1.3,1.7,2.5v0c-0.2,1.1-1.3,1.9-2.5,1.7l-152-27.9c-1.1-0.2-1.9-1.3-1.7-2.5
		l0,0C182.8,144.1,183.9,143.3,185,143.5z"/>
	<path class="st1" d="M187.1,154.8l151,39.4c1.1,0.3,1.8,1.5,1.5,2.6l0,0c-0.3,1.1-1.5,1.8-2.6,1.5l-151-39.4
		c-1.1-0.3-1.8-1.5-1.5-2.6v0C184.8,155.2,186,154.5,187.1,154.8z"/>
	<path class="st2" d="M186.5,164l152.1,51.5c1.1,0.4,1.7,1.6,1.3,2.7v0c-0.4,1.1-1.6,1.7-2.7,1.3L185.1,168
		c-1.1-0.4-1.7-1.6-1.3-2.7v0C184.2,164.2,185.4,163.6,186.5,164z"/>
</g>
<g id="whiteLines">
	<path class="st3" d="M3,192.8l143.6-38.5c1.1-0.3,2.3,0.4,2.6,1.5l0,0c0.3,1.1-0.4,2.3-1.5,2.6L4.1,196.9c-1.1,0.3-2.3-0.4-2.6-1.5
		h0C1.2,194.3,1.9,193.1,3,192.8z"/>
</g>
<g id="Triangle">
	<path class="st4" d="M168.3,116.7l-54.7,93.7c-0.6,1-0.3,2.3,0.8,2.9c0.3,0.2,0.7,0.3,1.1,0.3h108.9c1.2,0,2.1-0.9,2.1-2.1
		c0-0.4-0.1-0.8-0.3-1.1L172,116.7c-0.6-1-1.9-1.4-2.9-0.8C168.8,116.1,168.5,116.4,168.3,116.7z"/>
	<path class="st5" d="M3.6,1.5h334.1c1.2,0,2.1,0.9,2.1,2.1v334.1c0,1.2-0.9,2.1-2.1,2.1H3.6c-1.2,0-2.1-0.9-2.1-2.1V3.6
		C1.5,2.4,2.4,1.5,3.6,1.5z"/>
</g>
</svg>
