<?xml version="1.0" encoding="utf-8"?>
<!-- Generator: Adobe Illustrator 22.1.0, SVG Export Plug-In . SVG Version: 6.00 Build 0)  -->
<svg version="1.1" id="pinkFloydImg" xmlns="http://www.w3.org/2000/svg" xmlns:xlink="http://www.w3.org/1999/xlink" x="0px" y="0px"
	 viewBox="0 0 624.8 329.8" style="enable-background:new 0 0 624.8 329.8;" xml:space="preserve">
<style type="text/css">
	.st0{fill:#DA72A8;}
	.st1{fill:#E492BE;}
	.st2{fill:#AB84BB;}
	.st3{fill:#966EAE;}
	.st4{fill:#865EA5;}
	.st5{fill:#666FAB;}
	.st6{fill:#767DBB;}
	.st7{fill:#6A9CCB;}
	.st8{fill:#99C5D8;}
	.st9{fill:#4FA5A0;}
	.st10{fill:#70C4A4;}
	.st11{fill:#FFFFFF;}
	.st12{fill:#8FB66D;}
	.st13{fill:#AFD17E;}
	.st14{fill:#E8B946;}
	.st15{fill:#D9A430;}
	.st16{fill:#DD7E36;}
	.st17{fill:#E69249;}
	.st18{fill:#DF473D;}
	.st19{fill:#EC6A5E;}
</style>
<g id="Floyd">
	<polygon class="st0" points="609.8,258.9 325.3,-1.8 288.9,-2.1 562.4,249 	"/>
	<polygon class="st1" points="562.4,325.8 210.6,-1.8 292.7,-2 562.4,249 	"/>
	<polygon class="st2" points="553.5,249 540.2,249 264.8,-1.9 278.5,-2.1 	"/>
	<polygon class="st3" points="540.2,249 272.1,-1.9 236.6,-1.9 522,287.1 	"/>
	<polygon class="st2" points="505,249 491.7,249 219.3,-2.1 240.1,-1.9 	"/>
	<polygon class="st3" points="516.8,292.6 196.8,-2 225.5,-2.1 491.7,249 	"/>
	<polygon class="st4" points="516.8,325.8 171,-2 211.8,-2 516.8,292.6 	"/>
	<path class="st5" d="M422.4,268.6l47.6,45.7C470,314.3,403,340.6,422.4,268.6z"/>
	<path class="st6" d="M468.1,317.7l-44.9-45.3l16.3-19.4c0,0,44.5-8.1,43.7,40.3C483.2,293.4,482,307.7,468.1,317.7z"/>
	<path class="st6" d="M472.5,254.2L207.2-2l-81.4,0.1l297.9,318.8c0,0-9.2-12.8-5-30.5S430.8,255.9,472.5,254.2z"/>
	<path class="st5" d="M422.5,259.2L146.4-2L207.2-2l271.9,261.3C479.1,259.3,446.7,246.9,422.5,259.2z"/>
	<polygon class="st7" points="384,249 125.8,-1.9 108.5,-1.9 372.5,249 	"/>
	<polygon class="st7" points="406.6,314.9 361.6,267 367.2,303.9 384,314.9 	"/>
	<polygon class="st8" points="373.1,325.9 42.6,-1.9 116.9,-2 373.1,249.1 	"/>
	<polygon class="st9" points="358.1,278.4 312.9,235.4 304.3,242.7 332.3,278.4 	"/>
	<polygon class="st9" points="359.7,249.8 95.4,-1.9 42.3,-2 321.4,249.8 	"/>
	<polygon class="st10" points="320.7,325.8 -1.6,-1.9 53.4,-2.1 320.7,249 	"/>
	<g id="WHITE_1_">
		<path class="st11" d="M359,259.9h-26.7v18.4h25.8v10.9h-25.8v36.5h-11.6V249H359V259.9z"/>
		<path class="st11" d="M384,249v65.9h22.6v10.9h-34.1V249H384z"/>
		<path class="st11" d="M410.6,287.1c0-10.8,4-20.1,11.9-27.8c7.9-7.8,17.4-11.6,28.4-11.6c10.9,0,20.3,3.9,28.1,11.7
			c7.9,7.8,11.8,17.2,11.8,28.2c0,11-3.9,20.4-11.8,28.1c-7.9,7.7-17.5,11.6-28.7,11.6c-9.9,0-18.8-3.4-26.7-10.3
			C415,309.3,410.6,299.4,410.6,287.1z M422.3,287.2c0,8.5,2.8,15.5,8.5,20.9c5.7,5.5,12.2,8.2,19.6,8.2c8.1,0,14.8-2.8,20.4-8.4
			c5.5-5.6,8.3-12.5,8.3-20.6c0-8.2-2.7-15-8.2-20.6c-5.4-5.6-12.2-8.4-20.2-8.4c-8,0-14.7,2.8-20.2,8.4
			C425.1,272.3,422.3,279.1,422.3,287.2z"/>
		<path class="st11" d="M516.8,292.6L491.7,249H505l17.5,30.7l17.6-30.7h13.3l-25.2,43.6v33.2h-11.6V292.6z"/>
		<path class="st11" d="M562.4,325.8V249h16.1c7.7,0,13.8,0.8,18.3,2.3c4.8,1.5,9.2,4,13.1,7.6c7.9,7.2,11.9,16.7,11.9,28.5
			c0,11.8-4.1,21.3-12.4,28.6c-4.1,3.6-8.5,6.2-13,7.6c-4.2,1.4-10.3,2.1-18,2.1H562.4z M573.9,314.9h5.2c5.2,0,9.5-0.5,13-1.6
			c3.4-1.2,6.6-3,9.3-5.5c5.7-5.2,8.5-12,8.5-20.3c0-8.4-2.8-15.2-8.5-20.5c-5.1-4.7-12.5-7-22.4-7h-5.2V314.9z"/>
	</g>
</g>
<g id="Pink">
	<polygon class="st12" points="505.8,157.4 346.2,-2 322.6,-2 490.4,157.4 	"/>
	<polygon class="st13" points="490.4,157.4 328.8,-2 294.9,-1.8 454.6,161.9 459.9,196 	"/>
	<polygon class="st12" points="460.5,157.4 299.1,-2 283.1,-2 448.9,157.4 	"/>
	<polygon class="st13" points="448.9,234.2 250.8,-1.7 290,-1.8 448.9,157.4 	"/>
	<polygon class="st14" points="430.5,157.4 271,-1.9 246.4,-2 421.6,167.7 	"/>
	<polygon class="st15" points="418.9,157.4 258.3,-2 200.4,-2 421.9,217.5 	"/>
	<polyline class="st14" points="363,234.2 161.1,-1.8 207.4,-1.8 363,152.2 	"/>
	<polygon class="st16" points="344.5,157.4 180.7,-1.9 161.1,-1.8 329.1,164.3 	"/>
	<polygon class="st17" points="332.9,234.2 87.5,-1.9 168.3,-1.9 332.9,157.4 	"/>
	<polygon class="st18" points="314.4,163.8 142.6,-1.9 87.5,-1.9 276.1,164.6 	"/>
	<polyline class="st19" points="278.2,234.2 42,-2 116.2,-2 278.2,156.8 	"/>
	<g id="PINK_1_">
		<path class="st11" d="M289.5,203v31.2H278v-76.8h13.1c6.4,0,11.3,0.4,14.6,1.3c3.3,0.9,6.2,2.6,8.7,5.1c4.4,4.3,6.6,9.7,6.6,16.3
			c0,7-2.4,12.6-7.1,16.7c-4.7,4.1-11.1,6.2-19,6.2H289.5z M289.5,192.3h4.3c10.6,0,16-4.1,16-12.3c0-7.9-5.5-11.9-16.5-11.9h-3.8
			V192.3z"/>
		<path class="st11" d="M344.5,157.4v76.8h-11.6v-76.8H344.5z"/>
		<path class="st11" d="M363,234.2v-82l56,58.6v-53.3h11.6v81.4l-56-58.4v53.7H363z"/>
		<path class="st11" d="M460.5,188l29.9-30.6h15.5l-34.7,34.7l34.9,42h-15.5L462.9,200l-2.4,2.4v31.8h-11.6v-76.8h11.6V188z"/>
	</g>
</g>
</svg>
