<?xml version="1.0" encoding="utf-8"?>
<!-- Generator: Adobe Illustrator 23.0.0, SVG Export Plug-In . SVG Version: 6.00 Build 0)  -->
<svg version="1.1" id="wall_x5F_writers" xmlns="http://www.w3.org/2000/svg" xmlns:xlink="http://www.w3.org/1999/xlink" x="0px"
	 y="0px" viewBox="0 0 696 409" style="enable-background:new 0 0 696 409;" xml:space="preserve">
<style type="text/css">
	.st0{fill:#EC6A5E;}
	.st1{fill:#70C4A4;}
	.st2{fill:#C8CAD2;}
	.st3{fill:#717580;}
	.st4{fill:#B0B4BD;}
	.st5{fill:#242528;}
	.st6{fill:#4A5460;}
	.st7{fill:none;stroke:#FFFFFF;stroke-miterlimit:10;}
</style>
<g id="writers">
	
		<rect x="527.51" y="24.7" transform="matrix(6.123234e-17 -1 1 6.123234e-17 361.0644 719.6494)" class="st0" width="25.7" height="309.19"/>
	
		<rect x="389.67" y="199.92" transform="matrix(6.123234e-17 -1 1 6.123234e-17 185.8394 618.0903)" class="st1" width="24.58" height="32.41"/>
</g>
<g id="amp">
	<polygon class="st2" points="22.63,89.78 43.27,321.13 97.09,396.33 384.91,289.9 394.92,98.71 382.41,50.91 322.97,12.67 	"/>
	<polygon class="st3" points="67.68,139.49 22.61,89.95 43.27,321.13 97.09,396.33 82.07,191.75 	"/>
	<polygon class="st4" points="374.51,52.68 374.51,61.74 79.65,145.47 77.09,136.86 	"/>
	<polygon class="st4" points="388.38,99.92 374.51,52.68 315.96,14.55 322.97,12.67 382.41,50.91 394.92,98.71 384.91,289.9 
		377.9,292.46 	"/>
	<polygon class="st3" points="380.44,96.93 371.28,62.6 79.59,145.41 90.02,180.7 	"/>
	<polygon class="st5" points="380.44,96.93 376.45,284.94 105.02,384.15 90.02,180.7 	"/>
	<polygon class="st4" points="238.63,52.9 257.23,50.55 263.48,55.41 263.81,60.44 246.53,64.3 246.04,57.93 	"/>
	<polygon class="st3" points="246.04,57.93 263.48,55.41 263.81,60.44 246.53,64.3 	"/>
	<polygon class="st3" points="246.53,64.3 246.04,57.93 238.63,52.9 239.13,60.28 	"/>
	<path class="st5" d="M172.27,79.48c0,0,14.31-19.93,27.72-25.28c3.77-1.51,7.66-2.21,11.29-2.44c7.84-0.5,15.67,1.24,22.73,4.75
		l8.74,4.34l0.18-3.51c0,0-15.07-11.12-29.9-12.92c-19.75-2.4-47.11,28.98-47.11,28.98L172.27,79.48z"/>
	<polygon class="st3" points="166.35,71.58 171.95,76.63 172.17,84.75 153.63,89.8 145.44,84.31 145.44,80.36 	"/>
	<polygon class="st4" points="171.78,76.67 153.64,85.73 145.8,80.39 166.35,71.58 	"/>
	<polygon class="st4" points="77.09,136.86 30.5,87.8 22.72,89.84 67.68,139.49 82.07,191.75 97.09,396.33 106.82,392.53 
		92.52,188.7 	"/>
	
		<ellipse transform="matrix(0.9993 -0.0376 0.0376 0.9993 -1.8669 9.4442)" class="st5" cx="250.24" cy="54.37" rx="2.72" ry="1.29"/>
	
		<ellipse transform="matrix(0.9505 -0.3107 0.3107 0.9505 -16.7003 53.0995)" class="st5" cx="158.32" cy="78.97" rx="3.18" ry="1.84"/>
	<ellipse class="st5" cx="316.98" cy="95.85" rx="10.98" ry="10.95"/>
	<ellipse class="st5" cx="295.14" cy="101.35" rx="11.27" ry="10.89"/>
	<ellipse class="st5" cx="273.19" cy="107.84" rx="11.31" ry="10.89"/>
	<ellipse class="st5" cx="228.63" cy="121.05" rx="11.31" ry="10.89"/>
	<ellipse class="st5" cx="205.49" cy="127.79" rx="11.31" ry="10.89"/>
	<ellipse class="st2" cx="319.23" cy="95.22" rx="8.39" ry="8.79"/>
	<ellipse class="st2" cx="297.09" cy="100.93" rx="8.27" ry="8.97"/>
	<ellipse class="st2" cx="275.44" cy="107.42" rx="7.99" ry="9.07"/>
	<ellipse class="st2" cx="230.12" cy="120.58" rx="8.53" ry="9.29"/>
	<ellipse class="st2" cx="206.7" cy="127.68" rx="8.74" ry="9.29"/>
	<path class="st6" d="M100.08,166.46l18.31-5.26c1.41-0.41,2.23-1.9,1.83-3.33l-3.01-10.88c-0.4-1.44-1.86-2.27-3.27-1.87
		l-18.31,5.26c-1.41,0.41-2.23,1.9-1.83,3.33l3.01,10.88C97.2,166.03,98.67,166.87,100.08,166.46z"/>
	<path class="st7" d="M368.13,73.53l3.78,13.09c1.17,4.04-1.11,8.27-5.08,9.43l-265.96,78.19c-3.94,1.16-8.06-1.14-9.21-5.15
		l-4.68-16.17c-1.18-4.07,1.15-8.33,5.16-9.46L359,68.36C362.92,67.25,366.98,69.56,368.13,73.53z"/>
	<ellipse class="st5" cx="107.3" cy="155.78" rx="4.74" ry="4.83"/>
	<ellipse class="st6" cx="130.84" cy="147.95" rx="5.12" ry="4.98"/>
	<ellipse class="st5" cx="130.91" cy="148.03" rx="2.89" ry="2.81"/>
	<path class="st2" d="M129.01,145.96l7.53,1.7c0,0,2.2,0.15,1.89,2s-2.11,1.35-2.11,1.35l-8.24-2.48
		C128.08,148.53,127.81,146.78,129.01,145.96z"/>
	<ellipse class="st6" cx="155.71" cy="141.06" rx="5.12" ry="4.98"/>
	<ellipse class="st5" cx="155.92" cy="141.2" rx="2.89" ry="2.81"/>
</g>
</svg>
