<svg id="Layer_1" data-name="Layer 1" xmlns="http://www.w3.org/2000/svg" viewBox="0 0 341.35 341.35"><defs><style>.cls-1{fill:none;stroke:#fff;stroke-miterlimit:10;stroke-width:3px;}.cls-2{fill:#70c4a4;}.cls-3{fill:#4fa5a0;}</style></defs><title>the_wall_album</title><rect class="cls-1" x="1.5" y="1.5" width="338.35" height="338.35"/><polygon class="cls-2" points="72.93 109.25 269.93 109.25 269.93 134.62 292.6 134.62 292.6 210.24 267.68 210.24 268.17 235.1 74.22 235.1 74.24 209.98 49.4 209.73 49.4 134.37 73.24 134.6 72.93 109.25"/><path class="cls-3" d="M304.59,140v-5.64H254.07V115.16h26.82v-5.64H74.82v5.64H99v19.23H50.2V140H74.56v19.23H50.2v30.52h24V209h-24v5.65H99v19.22H76.17v5.65H279v-5.65h-25.1V214.65h50.65V209H279.91V189.78h24.68V159.26H280.24V140Zm-56.17-5.64H206V115.16h42.39ZM206,184.13V164.9h42.39v19.23ZM180.22,209V189.78H225V209Zm-31.35-44.1v19.23H104.64V164.9Zm26-24.87v19.23H130.08V140Zm-20.35-5.64V115.16h45.83v19.23Zm0,49.74V164.9h45.87v19.23Zm20.06,5.65V209H129.75V189.78Zm25.81,24.87v19.22H154.52V214.65Zm-19.84-55.39V140h44.78v19.23Zm-75.91-44.1h44.27v19.23H104.64ZM80.2,140h44.24v19.23H80.2ZM55.85,164.9H99v19.23H55.85Zm24,24.88h44.24V209H79.87Zm24.77,24.87h44.23v19.22H104.64Zm143.65,19.22H206V214.65h42.26Zm26-24.87H230.65V189.78h43.61ZM299,184.13H254.07V164.9H299Zm-24.36-24.87H231V140h43.61Z" transform="translate(-6.45 -3.49)"/></svg>