<svg id="Layer_1" data-name="Layer 1" xmlns="http://www.w3.org/2000/svg" viewBox="0 0 246 246"><defs><style>.cls-1{fill:#70c4a4;}.cls-2{fill:#4fa5a0;}.cls-3{fill:none;stroke:#fff;stroke-miterlimit:10;stroke-width:2px;}</style></defs><title>the_wall</title><polygon class="cls-1" points="50.83 77.55 195.77 77.55 195.77 96.22 212.44 96.22 212.44 151.85 194.11 151.85 194.47 170.14 51.78 170.14 51.8 151.66 33.52 151.47 33.52 96.03 51.06 96.2 50.83 77.55"/><path class="cls-2" d="M218.52,99.63V95.48H181.35V81.33h19.73V77.18H49.48v4.15H67.26V95.48H31.37v4.15H49.29v14.14H31.37v22.46H49v14.14H31.37v4.15H67.26v14.15H50.47v4.15H199.72v-4.15H181.25V154.52h37.27v-4.15H200.36V136.23h18.16V113.77H200.61V99.63ZM177.2,95.48H146V81.33H177.2ZM146,132.07V117.93H177.2v14.14Zm-19,18.3V136.23h33v14.14ZM104,117.93v14.14H71.42V117.93Zm19.15-18.3v14.14h-33V99.63Zm-15-4.15V81.33h33.72V95.48Zm0,36.59V117.93h33.75v14.14Zm14.76,4.16v14.14h-33V136.23Zm19,18.29v14.15H108.11V154.52Zm-14.59-40.75V99.63h32.94v14.14ZM71.42,81.33H104V95.48H71.42Zm-18,18.3H86v14.14H53.44Zm-17.92,18.3H67.26v14.14H35.52Zm17.68,18.3H85.74v14.14H53.2Zm18.22,18.29H104v14.15H71.42ZM177.1,168.67H146V154.52H177.1Zm19.11-18.3H164.12V136.23h32.09Zm18.16-18.3h-33V117.93h33Zm-17.92-18.3H164.36V99.63h32.09Z" transform="translate(-2 -2)"/><circle class="cls-3" cx="123" cy="123" r="122"/></svg>