<?xml version="1.0" encoding="utf-8"?>
<!-- Generator: Adobe Illustrator 23.0.0, SVG Export Plug-In . SVG Version: 6.00 Build 0)  -->
<svg version="1.1" id="Layer_1" xmlns="http://www.w3.org/2000/svg" xmlns:xlink="http://www.w3.org/1999/xlink" x="0px" y="0px"
	 viewBox="0 0 341.4 341.4" style="enable-background:new 0 0 341.4 341.4;" xml:space="preserve">
<style type="text/css">
	.st0{fill:none;stroke:#FFFFFF;stroke-width:3;stroke-miterlimit:10;}
	.st1{fill:#70C4A4;}
	.st2{fill:#4FA5A0;}
</style>
<g id="border">
	<rect x="1.5" y="1.5" class="st0" width="338.4" height="338.4"/>
</g>
<g id="brick">
	<polygon class="st1" points="72.9,109.2 269.9,109.2 269.9,134.6 292.6,134.6 292.6,210.2 267.7,210.2 268.2,235.1 74.2,235.1 
		74.2,210 49.4,209.7 49.4,134.4 73.2,134.6 	"/>
</g>
<g id="morter">
	<path class="st2" d="M298.1,136.5v-5.6h-50.5v-19.2h26.8V106h-206v5.6h24.2v19.2H43.8v5.6h24.4v19.2H43.8v30.5h24v19.2h-24v5.6
		h48.8v19.2H69.7v5.6h202.8v-5.6h-25.1v-19.2H298v-5.6h-24.6v-19.2h24.7v-30.5h-24.4v-19.3h24.4V136.5z M242,130.9h-42.4v-19.2H242
		V130.9z M199.6,180.6v-19.2H242v19.2H199.6z M173.8,205.5v-19.2h44.8v19.2H173.8z M142.4,161.4v19.2H98.2v-19.2H142.4z
		 M168.4,136.5v19.2h-44.8v-19.3L168.4,136.5z M148.1,130.9v-19.2h45.8v19.2H148.1z M148.1,180.6v-19.2H194v19.2H148.1z
		 M168.1,186.3v19.2h-44.8v-19.2H168.1z M193.9,211.2v19.2H148v-19.2H193.9z M174.1,155.8v-19.3h44.8v19.2L174.1,155.8z M98.2,111.7
		h44.3v19.2H98.2V111.7z M73.8,136.5H118v19.2H73.8V136.5z M49.4,161.4h43.2v19.2H49.4V161.4z M73.4,186.3h44.2v19.2H73.4V186.3z
		 M98.2,211.2h44.2v19.2H98.2V211.2z M241.8,230.4h-42.3v-19.2h42.3V230.4z M267.8,205.5h-43.6v-19.2h43.6V205.5z M292.5,180.6
		h-44.9v-19.2h44.9V180.6z M268.2,155.8h-43.6v-19.3h43.6V155.8z"/>
</g>
</svg>
