<svg id="Layer_1" data-name="Layer 1" xmlns="http://www.w3.org/2000/svg" viewBox="0 0 341.35 341.35"><defs><style>.cls-1{fill:#666fab;}.cls-2{fill:#828ed1;}.cls-3{fill:#dd7e36;}.cls-4{fill:#e69249;}.cls-5{fill:#6a9ccb;}.cls-6{fill:#81b7e2;}.cls-7{fill:#99c5d8;}.cls-8{fill:none;stroke:#fff;stroke-miterlimit:10;stroke-width:3px;}</style></defs><title>wish_you_album</title><path class="cls-1" d="M110.53,177.26l-9.66,87h11.69l14.25-32.05s5.08,8.65,4.57,32.05h13.74V180.82Z" transform="translate(-6.57 -3.97)"/><path class="cls-1" d="M128,123.59s-4.53-7.48,3.82-12.53,11.14-14.8,9.58-24.54-10.1-9.92-10.1-9.92-14.27.34-16.36,8,3.48,15.67,1.92,20.19a25.65,25.65,0,0,1-4.53,7.83Z" transform="translate(-6.57 -3.97)"/><path class="cls-2" d="M149.5,185.29,104.26,179s-5.12-58.3,8.29-68.89a1,1,0,0,1,1.21,0C116,112,124,118.52,126.4,119.58c2.12,1,9.65,4,13.82,9.91,4.67,6.63,31.74,29.72,31.74,29.72l-8.59,11.55s-22.1-17.83-25.74-24.76S150.49,168.45,149.5,185.29Z" transform="translate(-6.57 -3.97)"/><path class="cls-3" d="M247.18,121.24s13-13.4,4.78-30.48-16.4-14.35-21.18-34.85c0,0-29.39,26.65-10.25,57.4Z" transform="translate(-6.57 -3.97)"/><path class="cls-4" d="M243.59,123.32s9.35-9.65,3.45-22S235.23,91,231.78,76.27c0,0-21.16,19.19-7.38,41.33Z" transform="translate(-6.57 -3.97)"/><path class="cls-5" d="M244.61,177.26H218.16v44.23a31.75,31.75,0,0,0,2.65,12.71l13.12,30h14.24l-7.35-27.85a47.38,47.38,0,0,1-1.23-17.78Z" transform="translate(-6.57 -3.97)"/><path class="cls-6" d="M237.57,104.62s-4,4-8-12.18-18.8-15.84-18.8-15.84-12.53-.52-12,12.7a19.4,19.4,0,0,0,9.61,16.2,9.64,9.64,0,0,0,4.55,1c5.24.29,13.45,2.16,13.86,10.29Z" transform="translate(-6.57 -3.97)"/><path class="cls-7" d="M175.23,159.67l9.45,9.76,25.83-15.75L209,181.09h42.1l-2.72-34.26a31.14,31.14,0,0,1,.1-6c.87-7.47,2.5-28.21-4.94-35.39-9.13-8.82-20.79,1.57-20.79,1.57S208,123.33,205.78,131C201.44,146.29,175.23,159.67,175.23,159.67Z" transform="translate(-6.57 -3.97)"/><rect class="cls-8" x="1.5" y="1.5" width="338.35" height="338.35"/></svg>