<?xml version="1.0" encoding="utf-8"?>
<!-- Generator: Adobe Illustrator 23.0.0, SVG Export Plug-In . SVG Version: 6.00 Build 0)  -->
<svg version="1.1" id="Layer_1" xmlns="http://www.w3.org/2000/svg" xmlns:xlink="http://www.w3.org/1999/xlink" x="0px" y="0px"
	 viewBox="0 0 341.4 341.4" style="enable-background:new 0 0 341.4 341.4;" xml:space="preserve">
<style type="text/css">
	.st0{fill:#666FAB;}
	.st1{fill:#828ED1;}
	.st2{fill:#6A9CCB;}
	.st3{fill:#81B7E2;}
	.st4{fill:#99C5D8;}
	.st5{fill:none;stroke:#FFFFFF;stroke-width:3;stroke-miterlimit:10;}
	.st6{fill:#DD7E36;}
	.st7{fill:#E69249;}
</style>
<g id="men">
	<path class="st0" d="M104,173.3l-9.7,87H106l14.2-32.1c0,0,5.1,8.6,4.6,32.1h13.7v-83.4L104,173.3z"/>
	<path class="st0" d="M121.4,119.6c0,0-4.5-7.5,3.8-12.5s11.1-14.8,9.6-24.5s-10.1-9.9-10.1-9.9s-14.3,0.3-16.4,8s3.5,15.7,1.9,20.2
		c-1,2.9-2.6,5.5-4.5,7.8L121.4,119.6z"/>
	<path class="st1" d="M142.9,181.3L97.7,175c0,0-5.1-58.3,8.3-68.9c0.4-0.3,0.9-0.3,1.2,0c2.2,1.9,10.2,8.4,12.6,9.5
		c2.1,1,9.6,4,13.8,9.9c4.7,6.6,31.7,29.7,31.7,29.7l-8.6,11.6c0,0-22.1-17.8-25.7-24.8C127.4,135.1,143.9,164.5,142.9,181.3z"/>
	<path class="st2" d="M238,173.3h-26.4v44.2c0,4.4,0.9,8.7,2.6,12.7l13.1,30h14.2l-7.4-27.9c-1.5-5.8-1.9-11.8-1.2-17.8L238,173.3z"
		/>
	<path class="st3" d="M231,100.7c0,0-4,4-8-12.2s-18.8-15.8-18.8-15.8s-12.5-0.5-12,12.7c0.2,6.7,3.8,12.8,9.6,16.2
		c1.4,0.7,3,1,4.6,1c5.2,0.3,13.4,2.2,13.9,10.3L231,100.7z"/>
	<path class="st4" d="M168.7,155.7l9.4,9.8l25.8-15.8l-1.5,27.4h42.1l-2.7-34.3c-0.2-2-0.1-4,0.1-6c0.9-7.5,2.5-28.2-4.9-35.4
		c-9.1-8.8-20.8,1.6-20.8,1.6s-14.8,16.3-17,24C194.9,142.3,168.7,155.7,168.7,155.7z"/>
	<rect x="1.5" y="1.5" class="st5" width="338.4" height="338.4"/>
</g>
<g id="flame">
	<path class="st6" d="M240.6,117.3c0,0,13-13.4,4.8-30.5S229,72.4,224.2,51.9c0,0-29.4,26.7-10.2,57.4L240.6,117.3z"/>
	<path class="st7" d="M237,119.3c0,0,9.4-9.7,3.4-22S228.7,87,225.2,72.3c0,0-21.2,19.2-7.4,41.3L237,119.3z"/>
</g>
</svg>
