<?xml version="1.0" encoding="utf-8"?>
<!-- Generator: Adobe Illustrator 23.0.0, SVG Export Plug-In . SVG Version: 6.00 Build 0)  -->
<svg version="1.1" id="wish_x5F_you_x5F_record" xmlns="http://www.w3.org/2000/svg" xmlns:xlink="http://www.w3.org/1999/xlink"
	 x="0px" y="0px" viewBox="0 0 421 388" style="enable-background:new 0 0 421 388;" xml:space="preserve">
<style type="text/css">
	.st0{fill:#D6E3E5;}
	.st1{fill:#161616;}
	.st2{fill:#161616;stroke:#FFFFFF;stroke-width:2;stroke-miterlimit:10;}
	.st3{fill:none;}
	.st4{font-family:'Futura-Medium';}
	.st5{font-size:16px;}
	.st6{fill:#161616;stroke:#FFFFFF;stroke-width:3;stroke-miterlimit:10;}
	.st7{fill:#6A9CCB;}
	.st8{fill:#FFFFFF;}
</style>
<g id="platinum">
	<circle class="st0" cx="342.69" cy="82.42" r="61.83"/>
	<circle class="st1" cx="342.69" cy="82.42" r="18.73"/>
	<circle class="st2" cx="342.69" cy="82.42" r="4.74"/>
	<rect x="300.76" y="46.98" class="st3" width="83.87" height="16.08"/>
	<text transform="matrix(1 0 0 1 302.3224 60.1716)" class="st4 st5">PLATINUM</text>
	<rect x="323.96" y="28.9" class="st3" width="37.21" height="16.08"/>
	<text transform="matrix(1 0 0 1 333.1592 42.093)" class="st4 st5">6x</text>
</g>
<g id="record">
	<circle class="st6" cx="182.98" cy="200.69" r="163.19"/>
	<circle class="st7" cx="182.98" cy="200.69" r="99.87"/>
	<circle class="st1" cx="182.98" cy="200.69" r="28.96"/>
	<circle class="st2" cx="182.98" cy="200.69" r="4.74"/>
	<rect x="129.93" y="132.31" class="st3" width="105.35" height="16.36"/>
	<text transform="matrix(1 0 0 1 140.9066 145.5076)" class="st8 st4 st5">WISH YOU</text>
	<rect x="119.34" y="148.67" class="st3" width="127.28" height="16.36"/>
	<text transform="matrix(1 0 0 1 138.4334 161.8629)" class="st8 st4 st5">WERE HERE</text>
	<rect x="165.64" y="252.71" class="st3" width="34.68" height="16.36"/>
	<text transform="matrix(1 0 0 1 168.4059 265.9061)" class="st8 st4 st5">EMI</text>
</g>
</svg>
