<?xml version="1.0" encoding="utf-8"?>
<!-- Generator: Adobe Illustrator 23.0.0, SVG Export Plug-In . SVG Version: 6.00 Build 0)  -->
<svg version="1.1" id="wish_x5F_you_x5F_writers" xmlns="http://www.w3.org/2000/svg" xmlns:xlink="http://www.w3.org/1999/xlink"
	 x="0px" y="0px" viewBox="0 0 696 409" style="enable-background:new 0 0 696 409;" xml:space="preserve">
<style type="text/css">
	.st0{fill:#EC6A5E;}
	.st1{fill:#70C4A4;}
	.st2{fill:#966EAE;}
	.st3{fill:#C8CAD2;}
	.st4{fill:#717580;}
	.st5{fill:#B0B4BD;}
	.st6{fill:#242528;}
	.st7{fill:#4A5460;}
	.st8{fill:none;stroke:#FFFFFF;stroke-miterlimit:10;}
</style>
<g id="writers">
	
		<rect x="527.17" y="-2.65" transform="matrix(6.123234e-17 -1 1 6.123234e-17 386.6304 692.5602)" class="st0" width="24.86" height="311.24"/>
	
		<rect x="465.13" y="96.04" transform="matrix(6.123234e-17 -1 1 6.123234e-17 287.9353 667.1725)" class="st1" width="24.86" height="187.15"/>
	
		<rect x="431.8" y="166" transform="matrix(6.123234e-17 -1 1 6.123234e-17 217.9757 670.4785)" class="st2" width="24.86" height="120.5"/>
</g>
<g id="amp">
	<polygon class="st3" points="22.89,89.66 43.48,321.01 97.15,396.21 384.2,289.78 394.18,98.58 381.7,50.79 322.42,12.55 	"/>
	<polygon class="st4" points="67.82,139.37 22.87,89.83 43.48,321.01 97.15,396.21 82.17,191.63 	"/>
	<polygon class="st5" points="373.83,52.56 373.83,61.62 79.76,145.35 77.2,136.74 	"/>
	<polygon class="st5" points="387.66,99.8 373.83,52.56 315.43,14.43 322.42,12.55 381.7,50.79 394.18,98.58 384.2,289.78 
		377.21,292.34 	"/>
	<polygon class="st4" points="379.74,96.81 370.61,62.48 79.69,145.29 90.1,180.58 	"/>
	<polygon class="st6" points="379.74,96.81 375.76,284.82 105.06,384.03 90.1,180.58 	"/>
	<polygon class="st5" points="238.31,52.78 256.86,50.43 263.1,55.29 263.43,60.32 246.19,64.17 245.7,57.81 	"/>
	<polygon class="st4" points="245.7,57.81 263.1,55.29 263.43,60.32 246.19,64.17 	"/>
	<polygon class="st4" points="246.19,64.17 245.7,57.81 238.31,52.78 238.81,60.16 	"/>
	<path class="st6" d="M172.13,79.36c0,0,14.28-19.93,27.65-25.28c3.76-1.51,7.64-2.21,11.26-2.44c7.82-0.5,15.63,1.24,22.67,4.75
		l8.71,4.34l0.18-3.51c0,0-15.03-11.12-29.82-12.92c-19.7-2.4-46.99,28.98-46.99,28.98L172.13,79.36z"/>
	<polygon class="st4" points="166.22,71.46 171.81,76.51 172.03,84.63 153.54,89.68 145.37,84.19 145.37,80.24 	"/>
	<polygon class="st5" points="171.63,76.55 153.54,85.61 145.73,80.26 166.22,71.46 	"/>
	<polygon class="st5" points="77.2,136.74 30.74,87.68 22.98,89.72 67.82,139.37 82.17,191.63 97.15,396.21 106.85,392.41 
		92.59,188.58 	"/>
	
		<ellipse transform="matrix(0.9993 -0.0377 0.0377 0.9993 -1.8698 9.4713)" class="st6" cx="249.89" cy="54.25" rx="2.71" ry="1.29"/>
	<ellipse transform="matrix(0.95 -0.3122 0.3122 0.95 -16.7091 53.3418)" class="st6" cx="158.22" cy="78.85" rx="3.17" ry="1.84"/>
	<ellipse class="st6" cx="316.45" cy="95.73" rx="10.95" ry="10.95"/>
	<ellipse class="st6" cx="294.67" cy="101.23" rx="11.23" ry="10.89"/>
	<ellipse class="st6" cx="272.78" cy="107.72" rx="11.28" ry="10.89"/>
	<ellipse class="st6" cx="228.33" cy="120.93" rx="11.28" ry="10.89"/>
	<ellipse class="st6" cx="205.26" cy="127.66" rx="11.28" ry="10.89"/>
	<ellipse class="st3" cx="318.69" cy="95.1" rx="8.37" ry="8.79"/>
	<ellipse class="st3" cx="296.61" cy="100.81" rx="8.25" ry="8.97"/>
	<ellipse class="st3" cx="275.02" cy="107.3" rx="7.97" ry="9.07"/>
	<ellipse class="st3" cx="229.82" cy="120.46" rx="8.51" ry="9.29"/>
	<ellipse class="st3" cx="206.47" cy="127.56" rx="8.71" ry="9.29"/>
	<path class="st7" d="M100.13,166.34l18.27-5.26c1.41-0.41,2.22-1.9,1.83-3.33l-3.01-10.88c-0.4-1.44-1.86-2.27-3.27-1.87
		l-18.27,5.26c-1.41,0.41-2.22,1.9-1.83,3.33l3.01,10.88C97.26,165.91,98.73,166.75,100.13,166.34z"/>
	<path class="st8" d="M367.46,73.41l3.77,13.09c1.16,4.04-1.11,8.27-5.07,9.43l-265.25,78.19c-3.93,1.16-8.03-1.14-9.19-5.15
		l-4.67-16.17c-1.17-4.07,1.15-8.33,5.15-9.46l266.14-75.11C362.26,67.13,366.32,69.44,367.46,73.41z"/>
	<ellipse class="st6" cx="107.34" cy="155.66" rx="4.72" ry="4.83"/>
	<ellipse class="st7" cx="130.81" cy="147.83" rx="5.11" ry="4.98"/>
	<ellipse class="st6" cx="130.88" cy="147.91" rx="2.88" ry="2.81"/>
	<path class="st3" d="M128.99,145.84l7.51,1.7c0,0,2.19,0.15,1.88,2s-2.11,1.35-2.11,1.35l-8.22-2.48
		C128.05,148.41,127.79,146.65,128.99,145.84z"/>
	<ellipse class="st7" cx="155.61" cy="140.94" rx="5.11" ry="4.98"/>
	<ellipse class="st6" cx="155.82" cy="141.08" rx="2.88" ry="2.81"/>
</g>
</svg>
