<svg id="Layer_1" data-name="Layer 1" xmlns="http://www.w3.org/2000/svg" viewBox="0 0 241 241"><defs><style>.cls-1{fill:#666fab;}.cls-2{fill:#828ed1;}.cls-3{fill:#dd7e36;}.cls-4{fill:#e69249;}.cls-5{fill:#6a9ccb;}.cls-6{fill:#81b7e2;}.cls-7{fill:#99c5d8;}.cls-8{fill:none;stroke:#fff;stroke-miterlimit:10;stroke-width:2px;}</style></defs><title>wish_you</title><path class="cls-1" d="M78.39,129l-6.88,62h8.33L90,168.1s3.63,6.16,3.27,22.84H103V131.49Z" transform="translate(-4 -4)"/><path class="cls-1" d="M90.81,90.7s-3.22-5.33,2.73-8.93,7.94-10.54,6.82-17.49-7.19-7.07-7.19-7.07S83,57.46,81.51,62.92,84,74.08,82.87,77.31a18.28,18.28,0,0,1-3.22,5.58Z" transform="translate(-4 -4)"/><path class="cls-2" d="M106.17,134.68l-32.24-4.47s-3.65-41.55,5.9-49.1a.71.71,0,0,1,.87,0c1.6,1.31,7.31,6,9,6.72,1.51.67,6.88,2.85,9.85,7.06,3.33,4.72,22.62,21.18,22.62,21.18l-6.12,8.23s-15.75-12.71-18.34-17.65S106.87,122.67,106.17,134.68Z" transform="translate(-4 -4)"/><path class="cls-3" d="M175.78,89s9.25-9.55,3.41-21.72-11.69-10.23-15.1-24.84c0,0-20.94,19-7.31,40.91Z" transform="translate(-4 -4)"/><path class="cls-4" d="M173.22,90.51s6.66-6.88,2.46-15.64S167.26,67.5,164.8,57c0,0-15.08,13.68-5.26,29.46Z" transform="translate(-4 -4)"/><path class="cls-5" d="M173.94,129H155.09v31.52a22.58,22.58,0,0,0,1.9,9.06l9.34,21.41h10.15l-5.24-19.85a33.82,33.82,0,0,1-.87-12.67Z" transform="translate(-4 -4)"/><path class="cls-6" d="M168.93,77.19s-2.85,2.85-5.71-8.69-13.39-11.28-13.39-11.28-8.93-.38-8.56,9a13.82,13.82,0,0,0,6.85,11.54,6.75,6.75,0,0,0,3.24.72c3.73.21,9.58,1.55,9.88,7.34Z" transform="translate(-4 -4)"/><path class="cls-7" d="M124.5,116.42l6.73,7,18.41-11.22-1,19.53h30l-1.94-24.41a22.24,22.24,0,0,1,.07-4.24c.62-5.33,1.78-20.11-3.52-25.23-6.51-6.28-14.81,1.13-14.81,1.13S147.83,90.52,146.28,96C143.18,106.88,124.5,116.42,124.5,116.42Z" transform="translate(-4 -4)"/><circle class="cls-8" cx="120.5" cy="120.5" r="119.5"/></svg>